<?xml version="1.0" standalone="no"?>
<!DOCTYPE svg PUBLIC "-//W3C//DTD SVG 1.1//EN" "http://www.w3.org/Graphics/SVG/1.1/DTD/svg11.dtd">
<svg width="251mm" height="1220mm" viewBox="0 -1220 251 1220" xmlns="http://www.w3.org/2000/svg" version="1.1">
<title>OpenSCAD Model</title>
<path d="
M 250.825,-1219.2 L 0,-1219.2 L 0,-0 L 250.825,-0 z
M 72.3625,-1189.9 L 70.9719,-1191.15 L 70.2108,-1192.86 L 70.2108,-1194.74 L 70.9719,-1196.45 L 72.3625,-1197.7
 L 74.1421,-1198.28 L 76.0031,-1198.08 L 77.6236,-1197.14 L 78.7235,-1195.63 L 79.1125,-1193.8 L 78.7235,-1191.97
 L 77.6236,-1190.46 L 76.0031,-1189.52 L 74.1421,-1189.32 z
M 173.962,-1189.9 L 172.572,-1191.15 L 171.811,-1192.86 L 171.811,-1194.74 L 172.572,-1196.45 L 173.962,-1197.7
 L 175.742,-1198.28 L 177.603,-1198.08 L 179.224,-1197.14 L 180.323,-1195.63 L 180.712,-1193.8 L 180.323,-1191.97
 L 179.224,-1190.46 L 177.603,-1189.52 L 175.742,-1189.32 z
M 72.3625,-1088.3 L 70.9719,-1089.55 L 70.2108,-1091.26 L 70.2108,-1093.14 L 70.9719,-1094.85 L 72.3625,-1096.1
 L 74.1421,-1096.68 L 76.0031,-1096.48 L 77.6236,-1095.54 L 78.7235,-1094.03 L 79.1125,-1092.2 L 78.7235,-1090.37
 L 77.6236,-1088.86 L 76.0031,-1087.92 L 74.1421,-1087.72 z
M 173.962,-1088.3 L 172.572,-1089.55 L 171.811,-1091.26 L 171.811,-1093.14 L 172.572,-1094.85 L 173.962,-1096.1
 L 175.742,-1096.68 L 177.603,-1096.48 L 179.224,-1095.54 L 180.323,-1094.03 L 180.712,-1092.2 L 180.323,-1090.37
 L 179.224,-1088.86 L 177.603,-1087.92 L 175.742,-1087.72 z
M 72.3625,-986.703 L 70.9719,-987.955 L 70.2108,-989.664 L 70.2108,-991.536 L 70.9719,-993.245 L 72.3625,-994.497
 L 74.1421,-995.075 L 76.0031,-994.88 L 77.6236,-993.944 L 78.7235,-992.43 L 79.1125,-990.6 L 78.7235,-988.77
 L 77.6236,-987.256 L 76.0031,-986.32 L 74.1421,-986.125 z
M 173.962,-986.703 L 172.572,-987.955 L 171.811,-989.664 L 171.811,-991.536 L 172.572,-993.245 L 173.962,-994.497
 L 175.742,-995.075 L 177.603,-994.88 L 179.224,-993.944 L 180.323,-992.43 L 180.712,-990.6 L 180.323,-988.77
 L 179.224,-987.256 L 177.603,-986.32 L 175.742,-986.125 z
M 72.3625,-885.103 L 70.9719,-886.355 L 70.2108,-888.064 L 70.2108,-889.936 L 70.9719,-891.645 L 72.3625,-892.897
 L 74.1421,-893.475 L 76.0031,-893.28 L 77.6236,-892.344 L 78.7235,-890.83 L 79.1125,-889 L 78.7235,-887.17
 L 77.6236,-885.656 L 76.0031,-884.72 L 74.1421,-884.525 z
M 173.962,-885.103 L 172.572,-886.355 L 171.811,-888.064 L 171.811,-889.936 L 172.572,-891.645 L 173.962,-892.897
 L 175.742,-893.475 L 177.603,-893.28 L 179.224,-892.344 L 180.323,-890.83 L 180.712,-889 L 180.323,-887.17
 L 179.224,-885.656 L 177.603,-884.72 L 175.742,-884.525 z
M 72.3625,-783.503 L 70.9719,-784.755 L 70.2108,-786.464 L 70.2108,-788.336 L 70.9719,-790.045 L 72.3625,-791.297
 L 74.1421,-791.875 L 76.0031,-791.68 L 77.6236,-790.744 L 78.7235,-789.23 L 79.1125,-787.4 L 78.7235,-785.57
 L 77.6236,-784.056 L 76.0031,-783.12 L 74.1421,-782.925 z
M 173.962,-783.503 L 172.572,-784.755 L 171.811,-786.464 L 171.811,-788.336 L 172.572,-790.045 L 173.962,-791.297
 L 175.742,-791.875 L 177.603,-791.68 L 179.224,-790.744 L 180.323,-789.23 L 180.712,-787.4 L 180.323,-785.57
 L 179.224,-784.056 L 177.603,-783.12 L 175.742,-782.925 z
M 72.3625,-681.903 L 70.9719,-683.155 L 70.2108,-684.864 L 70.2108,-686.736 L 70.9719,-688.445 L 72.3625,-689.697
 L 74.1421,-690.275 L 76.0031,-690.08 L 77.6236,-689.144 L 78.7235,-687.63 L 79.1125,-685.8 L 78.7235,-683.97
 L 77.6236,-682.456 L 76.0031,-681.52 L 74.1421,-681.325 z
M 173.962,-681.903 L 172.572,-683.155 L 171.811,-684.864 L 171.811,-686.736 L 172.572,-688.445 L 173.962,-689.697
 L 175.742,-690.275 L 177.603,-690.08 L 179.224,-689.144 L 180.323,-687.63 L 180.712,-685.8 L 180.323,-683.97
 L 179.224,-682.456 L 177.603,-681.52 L 175.742,-681.325 z
M 72.3625,-580.303 L 70.9719,-581.555 L 70.2108,-583.264 L 70.2108,-585.136 L 70.9719,-586.845 L 72.3625,-588.097
 L 74.1421,-588.675 L 76.0031,-588.48 L 77.6236,-587.544 L 78.7235,-586.03 L 79.1125,-584.2 L 78.7235,-582.37
 L 77.6236,-580.856 L 76.0031,-579.92 L 74.1421,-579.725 z
M 173.962,-580.303 L 172.572,-581.555 L 171.811,-583.264 L 171.811,-585.136 L 172.572,-586.845 L 173.962,-588.097
 L 175.742,-588.675 L 177.603,-588.48 L 179.224,-587.544 L 180.323,-586.03 L 180.712,-584.2 L 180.323,-582.37
 L 179.224,-580.856 L 177.603,-579.92 L 175.742,-579.725 z
M 72.3625,-478.703 L 70.9719,-479.955 L 70.2108,-481.664 L 70.2108,-483.536 L 70.9719,-485.245 L 72.3625,-486.497
 L 74.1421,-487.075 L 76.0031,-486.88 L 77.6236,-485.944 L 78.7235,-484.43 L 79.1125,-482.6 L 78.7235,-480.77
 L 77.6236,-479.256 L 76.0031,-478.32 L 74.1421,-478.125 z
M 173.962,-478.703 L 172.572,-479.955 L 171.811,-481.664 L 171.811,-483.536 L 172.572,-485.245 L 173.962,-486.497
 L 175.742,-487.075 L 177.603,-486.88 L 179.224,-485.944 L 180.323,-484.43 L 180.712,-482.6 L 180.323,-480.77
 L 179.224,-479.256 L 177.603,-478.32 L 175.742,-478.125 z
M 72.3625,-377.103 L 70.9719,-378.355 L 70.2108,-380.064 L 70.2108,-381.936 L 70.9719,-383.645 L 72.3625,-384.897
 L 74.1421,-385.475 L 76.0031,-385.28 L 77.6236,-384.344 L 78.7235,-382.83 L 79.1125,-381 L 78.7235,-379.17
 L 77.6236,-377.656 L 76.0031,-376.72 L 74.1421,-376.525 z
M 173.962,-377.103 L 172.572,-378.355 L 171.811,-380.064 L 171.811,-381.936 L 172.572,-383.645 L 173.962,-384.897
 L 175.742,-385.475 L 177.603,-385.28 L 179.224,-384.344 L 180.323,-382.83 L 180.712,-381 L 180.323,-379.17
 L 179.224,-377.656 L 177.603,-376.72 L 175.742,-376.525 z
M 72.3625,-275.503 L 70.9719,-276.755 L 70.2108,-278.464 L 70.2108,-280.336 L 70.9719,-282.045 L 72.3625,-283.297
 L 74.1421,-283.875 L 76.0031,-283.68 L 77.6236,-282.744 L 78.7235,-281.23 L 79.1125,-279.4 L 78.7235,-277.57
 L 77.6236,-276.056 L 76.0031,-275.12 L 74.1421,-274.925 z
M 173.962,-275.503 L 172.572,-276.755 L 171.811,-278.464 L 171.811,-280.336 L 172.572,-282.045 L 173.962,-283.297
 L 175.742,-283.875 L 177.603,-283.68 L 179.224,-282.744 L 180.323,-281.23 L 180.712,-279.4 L 180.323,-277.57
 L 179.224,-276.056 L 177.603,-275.12 L 175.742,-274.925 z
M 72.3625,-173.903 L 70.9719,-175.155 L 70.2108,-176.864 L 70.2108,-178.736 L 70.9719,-180.445 L 72.3625,-181.697
 L 74.1421,-182.275 L 76.0031,-182.08 L 77.6236,-181.144 L 78.7235,-179.63 L 79.1125,-177.8 L 78.7235,-175.97
 L 77.6236,-174.456 L 76.0031,-173.52 L 74.1421,-173.325 z
M 173.962,-173.903 L 172.572,-175.155 L 171.811,-176.864 L 171.811,-178.736 L 172.572,-180.445 L 173.962,-181.697
 L 175.742,-182.275 L 177.603,-182.08 L 179.224,-181.144 L 180.323,-179.63 L 180.712,-177.8 L 180.323,-175.97
 L 179.224,-174.456 L 177.603,-173.52 L 175.742,-173.325 z
M 72.3625,-72.3029 L 70.9719,-73.555 L 70.2108,-75.2644 L 70.2108,-77.1356 L 70.9719,-78.845 L 72.3625,-80.0971
 L 74.1421,-80.6753 L 76.0031,-80.4798 L 77.6236,-79.5442 L 78.7235,-78.0303 L 79.1125,-76.2 L 78.7235,-74.3697
 L 77.6236,-72.8559 L 76.0031,-71.9202 L 74.1421,-71.7247 z
M 173.962,-72.3029 L 172.572,-73.555 L 171.811,-75.2644 L 171.811,-77.1356 L 172.572,-78.845 L 173.962,-80.0971
 L 175.742,-80.6753 L 177.603,-80.4798 L 179.224,-79.5442 L 180.323,-78.0303 L 180.712,-76.2 L 180.323,-74.3697
 L 179.224,-72.8559 L 177.603,-71.9202 L 175.742,-71.7247 z
" stroke="black" fill="lightgray" stroke-width="0.5"/>
</svg>
