<?xml version="1.0" standalone="no"?>
<!DOCTYPE svg PUBLIC "-//W3C//DTD SVG 1.1//EN" "http://www.w3.org/Graphics/SVG/1.1/DTD/svg11.dtd">
<svg width="251mm" height="1220mm" viewBox="0 -1220 251 1220" xmlns="http://www.w3.org/2000/svg" version="1.1">
<title>OpenSCAD Model</title>
<path d="
M 250.825,-1219.2 L 1.93715e-07,-1219.2 L 1.93715e-07,-0 L 250.825,-0 z
M 73.2219,-1189.52 L 71.6014,-1190.46 L 70.5015,-1191.97 L 70.1125,-1193.8 L 70.5015,-1195.63 L 71.6014,-1197.14
 L 73.2219,-1198.08 L 75.0829,-1198.28 L 76.8625,-1197.7 L 78.2531,-1196.45 L 79.0142,-1194.74 L 79.0142,-1192.86
 L 78.2531,-1191.15 L 76.8625,-1189.9 L 75.0829,-1189.32 z
M 174.822,-1189.52 L 173.201,-1190.46 L 172.102,-1191.97 L 171.712,-1193.8 L 172.102,-1195.63 L 173.201,-1197.14
 L 174.822,-1198.08 L 176.683,-1198.28 L 178.462,-1197.7 L 179.853,-1196.45 L 180.614,-1194.74 L 180.614,-1192.86
 L 179.853,-1191.15 L 178.462,-1189.9 L 176.683,-1189.32 z
M 73.2219,-1087.92 L 71.6014,-1088.86 L 70.5015,-1090.37 L 70.1125,-1092.2 L 70.5015,-1094.03 L 71.6014,-1095.54
 L 73.2219,-1096.48 L 75.0829,-1096.68 L 76.8625,-1096.1 L 78.2531,-1094.85 L 79.0142,-1093.14 L 79.0142,-1091.26
 L 78.2531,-1089.55 L 76.8625,-1088.3 L 75.0829,-1087.72 z
M 174.822,-1087.92 L 173.201,-1088.86 L 172.102,-1090.37 L 171.712,-1092.2 L 172.102,-1094.03 L 173.201,-1095.54
 L 174.822,-1096.48 L 176.683,-1096.68 L 178.462,-1096.1 L 179.853,-1094.85 L 180.614,-1093.14 L 180.614,-1091.26
 L 179.853,-1089.55 L 178.462,-1088.3 L 176.683,-1087.72 z
M 73.2219,-986.32 L 71.6014,-987.256 L 70.5015,-988.77 L 70.1125,-990.6 L 70.5015,-992.43 L 71.6014,-993.944
 L 73.2219,-994.88 L 75.0829,-995.075 L 76.8625,-994.497 L 78.2531,-993.245 L 79.0142,-991.536 L 79.0142,-989.664
 L 78.2531,-987.955 L 76.8625,-986.703 L 75.0829,-986.125 z
M 174.822,-986.32 L 173.201,-987.256 L 172.102,-988.77 L 171.712,-990.6 L 172.102,-992.43 L 173.201,-993.944
 L 174.822,-994.88 L 176.683,-995.075 L 178.462,-994.497 L 179.853,-993.245 L 180.614,-991.536 L 180.614,-989.664
 L 179.853,-987.955 L 178.462,-986.703 L 176.683,-986.125 z
M 73.2219,-884.72 L 71.6014,-885.656 L 70.5015,-887.17 L 70.1125,-889 L 70.5015,-890.83 L 71.6014,-892.344
 L 73.2219,-893.28 L 75.0829,-893.475 L 76.8625,-892.897 L 78.2531,-891.645 L 79.0142,-889.936 L 79.0142,-888.064
 L 78.2531,-886.355 L 76.8625,-885.103 L 75.0829,-884.525 z
M 174.822,-884.72 L 173.201,-885.656 L 172.102,-887.17 L 171.712,-889 L 172.102,-890.83 L 173.201,-892.344
 L 174.822,-893.28 L 176.683,-893.475 L 178.462,-892.897 L 179.853,-891.645 L 180.614,-889.936 L 180.614,-888.064
 L 179.853,-886.355 L 178.462,-885.103 L 176.683,-884.525 z
M 73.2219,-783.12 L 71.6014,-784.056 L 70.5015,-785.57 L 70.1125,-787.4 L 70.5015,-789.23 L 71.6014,-790.744
 L 73.2219,-791.68 L 75.0829,-791.875 L 76.8625,-791.297 L 78.2531,-790.045 L 79.0142,-788.336 L 79.0142,-786.464
 L 78.2531,-784.755 L 76.8625,-783.503 L 75.0829,-782.925 z
M 174.822,-783.12 L 173.201,-784.056 L 172.102,-785.57 L 171.712,-787.4 L 172.102,-789.23 L 173.201,-790.744
 L 174.822,-791.68 L 176.683,-791.875 L 178.462,-791.297 L 179.853,-790.045 L 180.614,-788.336 L 180.614,-786.464
 L 179.853,-784.755 L 178.462,-783.503 L 176.683,-782.925 z
M 73.2219,-681.52 L 71.6014,-682.456 L 70.5015,-683.97 L 70.1125,-685.8 L 70.5015,-687.63 L 71.6014,-689.144
 L 73.2219,-690.08 L 75.0829,-690.275 L 76.8625,-689.697 L 78.2531,-688.445 L 79.0142,-686.736 L 79.0142,-684.864
 L 78.2531,-683.155 L 76.8625,-681.903 L 75.0829,-681.325 z
M 174.822,-681.52 L 173.201,-682.456 L 172.102,-683.97 L 171.712,-685.8 L 172.102,-687.63 L 173.201,-689.144
 L 174.822,-690.08 L 176.683,-690.275 L 178.462,-689.697 L 179.853,-688.445 L 180.614,-686.736 L 180.614,-684.864
 L 179.853,-683.155 L 178.462,-681.903 L 176.683,-681.325 z
M 73.2219,-579.92 L 71.6014,-580.856 L 70.5015,-582.37 L 70.1125,-584.2 L 70.5015,-586.03 L 71.6014,-587.544
 L 73.2219,-588.48 L 75.0829,-588.675 L 76.8625,-588.097 L 78.2531,-586.845 L 79.0142,-585.136 L 79.0142,-583.264
 L 78.2531,-581.555 L 76.8625,-580.303 L 75.0829,-579.725 z
M 174.822,-579.92 L 173.201,-580.856 L 172.102,-582.37 L 171.712,-584.2 L 172.102,-586.03 L 173.201,-587.544
 L 174.822,-588.48 L 176.683,-588.675 L 178.462,-588.097 L 179.853,-586.845 L 180.614,-585.136 L 180.614,-583.264
 L 179.853,-581.555 L 178.462,-580.303 L 176.683,-579.725 z
M 73.2219,-478.32 L 71.6014,-479.256 L 70.5015,-480.77 L 70.1125,-482.6 L 70.5015,-484.43 L 71.6014,-485.944
 L 73.2219,-486.88 L 75.0829,-487.075 L 76.8625,-486.497 L 78.2531,-485.245 L 79.0142,-483.536 L 79.0142,-481.664
 L 78.2531,-479.955 L 76.8625,-478.703 L 75.0829,-478.125 z
M 174.822,-478.32 L 173.201,-479.256 L 172.102,-480.77 L 171.712,-482.6 L 172.102,-484.43 L 173.201,-485.944
 L 174.822,-486.88 L 176.683,-487.075 L 178.462,-486.497 L 179.853,-485.245 L 180.614,-483.536 L 180.614,-481.664
 L 179.853,-479.955 L 178.462,-478.703 L 176.683,-478.125 z
M 73.2219,-376.72 L 71.6014,-377.656 L 70.5015,-379.17 L 70.1125,-381 L 70.5015,-382.83 L 71.6014,-384.344
 L 73.2219,-385.28 L 75.0829,-385.475 L 76.8625,-384.897 L 78.2531,-383.645 L 79.0142,-381.936 L 79.0142,-380.064
 L 78.2531,-378.355 L 76.8625,-377.103 L 75.0829,-376.525 z
M 174.822,-376.72 L 173.201,-377.656 L 172.102,-379.17 L 171.712,-381 L 172.102,-382.83 L 173.201,-384.344
 L 174.822,-385.28 L 176.683,-385.475 L 178.462,-384.897 L 179.853,-383.645 L 180.614,-381.936 L 180.614,-380.064
 L 179.853,-378.355 L 178.462,-377.103 L 176.683,-376.525 z
M 73.2219,-275.12 L 71.6014,-276.056 L 70.5015,-277.57 L 70.1125,-279.4 L 70.5015,-281.23 L 71.6014,-282.744
 L 73.2219,-283.68 L 75.0829,-283.875 L 76.8625,-283.297 L 78.2531,-282.045 L 79.0142,-280.336 L 79.0142,-278.464
 L 78.2531,-276.755 L 76.8625,-275.503 L 75.0829,-274.925 z
M 174.822,-275.12 L 173.201,-276.056 L 172.102,-277.57 L 171.712,-279.4 L 172.102,-281.23 L 173.201,-282.744
 L 174.822,-283.68 L 176.683,-283.875 L 178.462,-283.297 L 179.853,-282.045 L 180.614,-280.336 L 180.614,-278.464
 L 179.853,-276.755 L 178.462,-275.503 L 176.683,-274.925 z
M 73.2219,-173.52 L 71.6014,-174.456 L 70.5015,-175.97 L 70.1125,-177.8 L 70.5015,-179.63 L 71.6014,-181.144
 L 73.2219,-182.08 L 75.0829,-182.275 L 76.8625,-181.697 L 78.2531,-180.445 L 79.0142,-178.736 L 79.0142,-176.864
 L 78.2531,-175.155 L 76.8625,-173.903 L 75.0829,-173.325 z
M 174.822,-173.52 L 173.201,-174.456 L 172.102,-175.97 L 171.712,-177.8 L 172.102,-179.63 L 173.201,-181.144
 L 174.822,-182.08 L 176.683,-182.275 L 178.462,-181.697 L 179.853,-180.445 L 180.614,-178.736 L 180.614,-176.864
 L 179.853,-175.155 L 178.462,-173.903 L 176.683,-173.325 z
M 73.2219,-71.9202 L 71.6014,-72.8559 L 70.5015,-74.3697 L 70.1125,-76.2 L 70.5015,-78.0303 L 71.6014,-79.5442
 L 73.2219,-80.4798 L 75.0829,-80.6753 L 76.8625,-80.0971 L 78.2531,-78.845 L 79.0142,-77.1356 L 79.0142,-75.2644
 L 78.2531,-73.555 L 76.8625,-72.3029 L 75.0829,-71.7247 z
M 174.822,-71.9202 L 173.201,-72.8559 L 172.102,-74.3697 L 171.712,-76.2 L 172.102,-78.0303 L 173.201,-79.5442
 L 174.822,-80.4798 L 176.683,-80.6753 L 178.462,-80.0971 L 179.853,-78.845 L 180.614,-77.1356 L 180.614,-75.2644
 L 179.853,-73.555 L 178.462,-72.3029 L 176.683,-71.7247 z
" stroke="black" fill="lightgray" stroke-width="0.5"/>
</svg>
