<?xml version="1.0" standalone="no"?>
<!DOCTYPE svg PUBLIC "-//W3C//DTD SVG 1.1//EN" "http://www.w3.org/Graphics/SVG/1.1/DTD/svg11.dtd">
<svg width="251mm" height="1220mm" viewBox="0 -1220 251 1220" xmlns="http://www.w3.org/2000/svg" version="1.1">
<title>OpenSCAD Model</title>
<path d="
M 0,-0 L 250.825,-0 L 250.825,-1219.2 L 0,-1219.2 z
M 46.3296,-101.6 L 46.3334,-101.756 L 46.3449,-101.911 L 46.364,-102.066 L 46.3906,-102.219 L 46.4248,-102.371
 L 46.4663,-102.522 L 46.5152,-102.67 L 46.5713,-102.815 L 46.6344,-102.957 L 46.7045,-103.097 L 46.7813,-103.232
 L 46.8647,-103.364 L 46.9544,-103.491 L 47.0503,-103.614 L 47.1521,-103.732 L 47.2595,-103.845 L 47.3724,-103.953
 L 47.4904,-104.054 L 47.6133,-104.15 L 47.7407,-104.24 L 47.8723,-104.323 L 48.0079,-104.4 L 48.1471,-104.47
 L 48.2896,-104.533 L 48.435,-104.589 L 48.5829,-104.638 L 48.7331,-104.68 L 48.8852,-104.714 L 49.0387,-104.741
 L 49.1934,-104.76 L 49.3488,-104.771 L 49.5046,-104.775 L 49.6604,-104.771 L 49.8158,-104.76 L 49.9705,-104.741
 L 50.124,-104.714 L 50.2761,-104.68 L 50.4263,-104.638 L 50.5742,-104.589 L 50.7196,-104.533 L 50.8621,-104.47
 L 51.0013,-104.4 L 51.1369,-104.323 L 51.2685,-104.24 L 51.3959,-104.15 L 51.5188,-104.054 L 51.6368,-103.953
 L 51.7497,-103.845 L 51.8571,-103.732 L 51.9589,-103.614 L 52.0548,-103.491 L 52.1445,-103.364 L 52.2279,-103.232
 L 52.3047,-103.097 L 52.3748,-102.957 L 52.4379,-102.815 L 52.494,-102.67 L 52.5429,-102.522 L 52.5844,-102.371
 L 52.6186,-102.219 L 52.6452,-102.066 L 52.6643,-101.911 L 52.6758,-101.756 L 52.6796,-101.6 L 52.6758,-101.444
 L 52.6643,-101.289 L 52.6452,-101.134 L 52.6186,-100.981 L 52.5844,-100.829 L 52.5429,-100.678 L 52.494,-100.53
 L 52.4379,-100.385 L 52.3748,-100.243 L 52.3047,-100.103 L 52.2279,-99.9677 L 52.1445,-99.8361 L 52.0548,-99.7087
 L 51.9589,-99.5858 L 51.8571,-99.4678 L 51.7497,-99.3549 L 51.6368,-99.2475 L 51.5188,-99.1457 L 51.3959,-99.0498
 L 51.2685,-98.9601 L 51.1369,-98.8767 L 51.0013,-98.7999 L 50.8621,-98.7298 L 50.7196,-98.6667 L 50.5742,-98.6106
 L 50.4263,-98.5617 L 50.2761,-98.5202 L 50.124,-98.486 L 49.9705,-98.4594 L 49.8158,-98.4403 L 49.6604,-98.4288
 L 49.5046,-98.425 L 49.3488,-98.4288 L 49.1934,-98.4403 L 49.0387,-98.4594 L 48.8852,-98.486 L 48.7331,-98.5202
 L 48.5829,-98.5617 L 48.435,-98.6106 L 48.2896,-98.6667 L 48.1471,-98.7298 L 48.0079,-98.7999 L 47.8723,-98.8767
 L 47.7407,-98.9601 L 47.6133,-99.0498 L 47.4904,-99.1457 L 47.3724,-99.2475 L 47.2595,-99.3549 L 47.1521,-99.4678
 L 47.0503,-99.5858 L 46.9544,-99.7087 L 46.8647,-99.8361 L 46.7813,-99.9677 L 46.7045,-100.103 L 46.6344,-100.243
 L 46.5713,-100.385 L 46.5152,-100.53 L 46.4663,-100.678 L 46.4248,-100.829 L 46.3906,-100.981 L 46.364,-101.134
 L 46.3449,-101.289 L 46.3334,-101.444 z
M 46.3296,-298.45 L 46.3334,-298.606 L 46.3449,-298.761 L 46.364,-298.916 L 46.3906,-299.069 L 46.4248,-299.221
 L 46.4663,-299.372 L 46.5152,-299.52 L 46.5713,-299.665 L 46.6344,-299.807 L 46.7045,-299.947 L 46.7813,-300.082
 L 46.8647,-300.214 L 46.9544,-300.341 L 47.0503,-300.464 L 47.1521,-300.582 L 47.2595,-300.695 L 47.3724,-300.803
 L 47.4904,-300.904 L 47.6133,-301 L 47.7407,-301.09 L 47.8723,-301.173 L 48.0079,-301.25 L 48.1471,-301.32
 L 48.2896,-301.383 L 48.435,-301.439 L 48.5829,-301.488 L 48.7331,-301.53 L 48.8852,-301.564 L 49.0387,-301.591
 L 49.1934,-301.61 L 49.3488,-301.621 L 49.5046,-301.625 L 49.6604,-301.621 L 49.8158,-301.61 L 49.9705,-301.591
 L 50.124,-301.564 L 50.2761,-301.53 L 50.4263,-301.488 L 50.5742,-301.439 L 50.7196,-301.383 L 50.8621,-301.32
 L 51.0013,-301.25 L 51.1369,-301.173 L 51.2685,-301.09 L 51.3959,-301 L 51.5188,-300.904 L 51.6368,-300.803
 L 51.7497,-300.695 L 51.8571,-300.582 L 51.9589,-300.464 L 52.0548,-300.341 L 52.1445,-300.214 L 52.2279,-300.082
 L 52.3047,-299.947 L 52.3748,-299.807 L 52.4379,-299.665 L 52.494,-299.52 L 52.5429,-299.372 L 52.5844,-299.221
 L 52.6186,-299.069 L 52.6452,-298.916 L 52.6643,-298.761 L 52.6758,-298.606 L 52.6796,-298.45 L 52.6758,-298.294
 L 52.6643,-298.139 L 52.6452,-297.984 L 52.6186,-297.831 L 52.5844,-297.679 L 52.5429,-297.528 L 52.494,-297.38
 L 52.4379,-297.235 L 52.3748,-297.093 L 52.3047,-296.953 L 52.2279,-296.818 L 52.1445,-296.686 L 52.0548,-296.559
 L 51.9589,-296.436 L 51.8571,-296.318 L 51.7497,-296.205 L 51.6368,-296.097 L 51.5188,-295.996 L 51.3959,-295.9
 L 51.2685,-295.81 L 51.1369,-295.727 L 51.0013,-295.65 L 50.8621,-295.58 L 50.7196,-295.517 L 50.5742,-295.461
 L 50.4263,-295.412 L 50.2761,-295.37 L 50.124,-295.336 L 49.9705,-295.309 L 49.8158,-295.29 L 49.6604,-295.279
 L 49.5046,-295.275 L 49.3488,-295.279 L 49.1934,-295.29 L 49.0387,-295.309 L 48.8852,-295.336 L 48.7331,-295.37
 L 48.5829,-295.412 L 48.435,-295.461 L 48.2896,-295.517 L 48.1471,-295.58 L 48.0079,-295.65 L 47.8723,-295.727
 L 47.7407,-295.81 L 47.6133,-295.9 L 47.4904,-295.996 L 47.3724,-296.097 L 47.2595,-296.205 L 47.1521,-296.318
 L 47.0503,-296.436 L 46.9544,-296.559 L 46.8647,-296.686 L 46.7813,-296.818 L 46.7045,-296.953 L 46.6344,-297.093
 L 46.5713,-297.235 L 46.5152,-297.38 L 46.4663,-297.528 L 46.4248,-297.679 L 46.3906,-297.831 L 46.364,-297.984
 L 46.3449,-298.139 L 46.3334,-298.294 z
M 46.3296,-495.3 L 46.3334,-495.456 L 46.3449,-495.611 L 46.364,-495.766 L 46.3906,-495.919 L 46.4248,-496.071
 L 46.4663,-496.222 L 46.5152,-496.37 L 46.5713,-496.515 L 46.6344,-496.657 L 46.7045,-496.797 L 46.7813,-496.932
 L 46.8647,-497.064 L 46.9544,-497.191 L 47.0503,-497.314 L 47.1521,-497.432 L 47.2595,-497.545 L 47.3724,-497.653
 L 47.4904,-497.754 L 47.6133,-497.85 L 47.7407,-497.94 L 47.8723,-498.023 L 48.0079,-498.1 L 48.1471,-498.17
 L 48.2896,-498.233 L 48.435,-498.289 L 48.5829,-498.338 L 48.7331,-498.38 L 48.8852,-498.414 L 49.0387,-498.441
 L 49.1934,-498.46 L 49.3488,-498.471 L 49.5046,-498.475 L 49.6604,-498.471 L 49.8158,-498.46 L 49.9705,-498.441
 L 50.124,-498.414 L 50.2761,-498.38 L 50.4263,-498.338 L 50.5742,-498.289 L 50.7196,-498.233 L 50.8621,-498.17
 L 51.0013,-498.1 L 51.1369,-498.023 L 51.2685,-497.94 L 51.3959,-497.85 L 51.5188,-497.754 L 51.6368,-497.653
 L 51.7497,-497.545 L 51.8571,-497.432 L 51.9589,-497.314 L 52.0548,-497.191 L 52.1445,-497.064 L 52.2279,-496.932
 L 52.3047,-496.797 L 52.3748,-496.657 L 52.4379,-496.515 L 52.494,-496.37 L 52.5429,-496.222 L 52.5844,-496.071
 L 52.6186,-495.919 L 52.6452,-495.766 L 52.6643,-495.611 L 52.6758,-495.456 L 52.6796,-495.3 L 52.6758,-495.144
 L 52.6643,-494.989 L 52.6452,-494.834 L 52.6186,-494.681 L 52.5844,-494.529 L 52.5429,-494.378 L 52.494,-494.23
 L 52.4379,-494.085 L 52.3748,-493.943 L 52.3047,-493.803 L 52.2279,-493.668 L 52.1445,-493.536 L 52.0548,-493.409
 L 51.9589,-493.286 L 51.8571,-493.168 L 51.7497,-493.055 L 51.6368,-492.947 L 51.5188,-492.846 L 51.3959,-492.75
 L 51.2685,-492.66 L 51.1369,-492.577 L 51.0013,-492.5 L 50.8621,-492.43 L 50.7196,-492.367 L 50.5742,-492.311
 L 50.4263,-492.262 L 50.2761,-492.22 L 50.124,-492.186 L 49.9705,-492.159 L 49.8158,-492.14 L 49.6604,-492.129
 L 49.5046,-492.125 L 49.3488,-492.129 L 49.1934,-492.14 L 49.0387,-492.159 L 48.8852,-492.186 L 48.7331,-492.22
 L 48.5829,-492.262 L 48.435,-492.311 L 48.2896,-492.367 L 48.1471,-492.43 L 48.0079,-492.5 L 47.8723,-492.577
 L 47.7407,-492.66 L 47.6133,-492.75 L 47.4904,-492.846 L 47.3724,-492.947 L 47.2595,-493.055 L 47.1521,-493.168
 L 47.0503,-493.286 L 46.9544,-493.409 L 46.8647,-493.536 L 46.7813,-493.668 L 46.7045,-493.803 L 46.6344,-493.943
 L 46.5713,-494.085 L 46.5152,-494.23 L 46.4663,-494.378 L 46.4248,-494.529 L 46.3906,-494.681 L 46.364,-494.834
 L 46.3449,-494.989 L 46.3334,-495.144 z
M 46.3296,-637.159 L 46.3334,-637.315 L 46.3449,-637.47 L 46.364,-637.625 L 46.3906,-637.778 L 46.4248,-637.93
 L 46.4663,-638.081 L 46.5152,-638.229 L 46.5713,-638.374 L 46.6344,-638.516 L 46.7045,-638.656 L 46.7813,-638.791
 L 46.8647,-638.923 L 46.9544,-639.05 L 47.0503,-639.173 L 47.1521,-639.291 L 47.2595,-639.404 L 47.3724,-639.512
 L 47.4904,-639.613 L 47.6133,-639.709 L 47.7407,-639.799 L 47.8723,-639.882 L 48.0079,-639.959 L 48.1471,-640.029
 L 48.2896,-640.092 L 48.435,-640.148 L 48.5829,-640.197 L 48.7331,-640.239 L 48.8852,-640.273 L 49.0387,-640.3
 L 49.1934,-640.319 L 49.3488,-640.33 L 49.5046,-640.334 L 49.6604,-640.33 L 49.8158,-640.319 L 49.9705,-640.3
 L 50.124,-640.273 L 50.2761,-640.239 L 50.4263,-640.197 L 50.5742,-640.148 L 50.7196,-640.092 L 50.8621,-640.029
 L 51.0013,-639.959 L 51.1369,-639.882 L 51.2685,-639.799 L 51.3959,-639.709 L 51.5188,-639.613 L 51.6368,-639.512
 L 51.7497,-639.404 L 51.8571,-639.291 L 51.9589,-639.173 L 52.0548,-639.05 L 52.1445,-638.923 L 52.2279,-638.791
 L 52.3047,-638.656 L 52.3748,-638.516 L 52.4379,-638.374 L 52.494,-638.229 L 52.5429,-638.081 L 52.5844,-637.93
 L 52.6186,-637.778 L 52.6452,-637.625 L 52.6643,-637.47 L 52.6758,-637.315 L 52.6796,-637.159 L 52.6758,-637.003
 L 52.6643,-636.848 L 52.6452,-636.693 L 52.6186,-636.54 L 52.5844,-636.388 L 52.5429,-636.237 L 52.494,-636.089
 L 52.4379,-635.944 L 52.3748,-635.802 L 52.3047,-635.662 L 52.2279,-635.527 L 52.1445,-635.395 L 52.0548,-635.268
 L 51.9589,-635.145 L 51.8571,-635.027 L 51.7497,-634.914 L 51.6368,-634.806 L 51.5188,-634.705 L 51.3959,-634.609
 L 51.2685,-634.519 L 51.1369,-634.436 L 51.0013,-634.359 L 50.8621,-634.289 L 50.7196,-634.226 L 50.5742,-634.17
 L 50.4263,-634.121 L 50.2761,-634.079 L 50.124,-634.045 L 49.9705,-634.018 L 49.8158,-633.999 L 49.6604,-633.988
 L 49.5046,-633.984 L 49.3488,-633.988 L 49.1934,-633.999 L 49.0387,-634.018 L 48.8852,-634.045 L 48.7331,-634.079
 L 48.5829,-634.121 L 48.435,-634.17 L 48.2896,-634.226 L 48.1471,-634.289 L 48.0079,-634.359 L 47.8723,-634.436
 L 47.7407,-634.519 L 47.6133,-634.609 L 47.4904,-634.705 L 47.3724,-634.806 L 47.2595,-634.914 L 47.1521,-635.027
 L 47.0503,-635.145 L 46.9544,-635.268 L 46.8647,-635.395 L 46.7813,-635.527 L 46.7045,-635.662 L 46.6344,-635.802
 L 46.5713,-635.944 L 46.5152,-636.089 L 46.4663,-636.237 L 46.4248,-636.388 L 46.3906,-636.54 L 46.364,-636.693
 L 46.3449,-636.848 L 46.3334,-637.003 z
M 46.3296,-834.009 L 46.3334,-834.165 L 46.3449,-834.32 L 46.364,-834.475 L 46.3906,-834.628 L 46.4248,-834.78
 L 46.4663,-834.931 L 46.5152,-835.079 L 46.5713,-835.224 L 46.6344,-835.366 L 46.7045,-835.506 L 46.7813,-835.641
 L 46.8647,-835.773 L 46.9544,-835.9 L 47.0503,-836.023 L 47.1521,-836.141 L 47.2595,-836.254 L 47.3724,-836.362
 L 47.4904,-836.463 L 47.6133,-836.559 L 47.7407,-836.649 L 47.8723,-836.732 L 48.0079,-836.809 L 48.1471,-836.879
 L 48.2896,-836.942 L 48.435,-836.998 L 48.5829,-837.047 L 48.7331,-837.089 L 48.8852,-837.123 L 49.0387,-837.15
 L 49.1934,-837.169 L 49.3488,-837.18 L 49.5046,-837.184 L 49.6604,-837.18 L 49.8158,-837.169 L 49.9705,-837.15
 L 50.124,-837.123 L 50.2761,-837.089 L 50.4263,-837.047 L 50.5742,-836.998 L 50.7196,-836.942 L 50.8621,-836.879
 L 51.0013,-836.809 L 51.1369,-836.732 L 51.2685,-836.649 L 51.3959,-836.559 L 51.5188,-836.463 L 51.6368,-836.362
 L 51.7497,-836.254 L 51.8571,-836.141 L 51.9589,-836.023 L 52.0548,-835.9 L 52.1445,-835.773 L 52.2279,-835.641
 L 52.3047,-835.506 L 52.3748,-835.366 L 52.4379,-835.224 L 52.494,-835.079 L 52.5429,-834.931 L 52.5844,-834.78
 L 52.6186,-834.628 L 52.6452,-834.475 L 52.6643,-834.32 L 52.6758,-834.165 L 52.6796,-834.009 L 52.6758,-833.853
 L 52.6643,-833.698 L 52.6452,-833.543 L 52.6186,-833.39 L 52.5844,-833.238 L 52.5429,-833.087 L 52.494,-832.939
 L 52.4379,-832.794 L 52.3748,-832.652 L 52.3047,-832.512 L 52.2279,-832.377 L 52.1445,-832.245 L 52.0548,-832.118
 L 51.9589,-831.995 L 51.8571,-831.877 L 51.7497,-831.764 L 51.6368,-831.656 L 51.5188,-831.555 L 51.3959,-831.459
 L 51.2685,-831.369 L 51.1369,-831.286 L 51.0013,-831.209 L 50.8621,-831.139 L 50.7196,-831.076 L 50.5742,-831.02
 L 50.4263,-830.971 L 50.2761,-830.929 L 50.124,-830.895 L 49.9705,-830.868 L 49.8158,-830.849 L 49.6604,-830.838
 L 49.5046,-830.834 L 49.3488,-830.838 L 49.1934,-830.849 L 49.0387,-830.868 L 48.8852,-830.895 L 48.7331,-830.929
 L 48.5829,-830.971 L 48.435,-831.02 L 48.2896,-831.076 L 48.1471,-831.139 L 48.0079,-831.209 L 47.8723,-831.286
 L 47.7407,-831.369 L 47.6133,-831.459 L 47.4904,-831.555 L 47.3724,-831.656 L 47.2595,-831.764 L 47.1521,-831.877
 L 47.0503,-831.995 L 46.9544,-832.118 L 46.8647,-832.245 L 46.7813,-832.377 L 46.7045,-832.512 L 46.6344,-832.652
 L 46.5713,-832.794 L 46.5152,-832.939 L 46.4663,-833.087 L 46.4248,-833.238 L 46.3906,-833.39 L 46.364,-833.543
 L 46.3449,-833.698 L 46.3334,-833.853 z
M 46.3296,-975.868 L 46.3334,-976.024 L 46.3449,-976.179 L 46.364,-976.334 L 46.3906,-976.487 L 46.4248,-976.639
 L 46.4663,-976.79 L 46.5152,-976.938 L 46.5713,-977.083 L 46.6344,-977.225 L 46.7045,-977.365 L 46.7813,-977.5
 L 46.8647,-977.632 L 46.9544,-977.759 L 47.0503,-977.882 L 47.1521,-978 L 47.2595,-978.113 L 47.3724,-978.221
 L 47.4904,-978.322 L 47.6133,-978.418 L 47.7407,-978.508 L 47.8723,-978.591 L 48.0079,-978.668 L 48.1471,-978.738
 L 48.2896,-978.801 L 48.435,-978.857 L 48.5829,-978.906 L 48.7331,-978.948 L 48.8852,-978.982 L 49.0387,-979.009
 L 49.1934,-979.028 L 49.3488,-979.039 L 49.5046,-979.043 L 49.6604,-979.039 L 49.8158,-979.028 L 49.9705,-979.009
 L 50.124,-978.982 L 50.2761,-978.948 L 50.4263,-978.906 L 50.5742,-978.857 L 50.7196,-978.801 L 50.8621,-978.738
 L 51.0013,-978.668 L 51.1369,-978.591 L 51.2685,-978.508 L 51.3959,-978.418 L 51.5188,-978.322 L 51.6368,-978.221
 L 51.7497,-978.113 L 51.8571,-978 L 51.9589,-977.882 L 52.0548,-977.759 L 52.1445,-977.632 L 52.2279,-977.5
 L 52.3047,-977.365 L 52.3748,-977.225 L 52.4379,-977.083 L 52.494,-976.938 L 52.5429,-976.79 L 52.5844,-976.639
 L 52.6186,-976.487 L 52.6452,-976.334 L 52.6643,-976.179 L 52.6758,-976.024 L 52.6796,-975.868 L 52.6758,-975.712
 L 52.6643,-975.557 L 52.6452,-975.402 L 52.6186,-975.249 L 52.5844,-975.097 L 52.5429,-974.946 L 52.494,-974.798
 L 52.4379,-974.653 L 52.3748,-974.511 L 52.3047,-974.371 L 52.2279,-974.236 L 52.1445,-974.104 L 52.0548,-973.977
 L 51.9589,-973.854 L 51.8571,-973.736 L 51.7497,-973.623 L 51.6368,-973.515 L 51.5188,-973.414 L 51.3959,-973.318
 L 51.2685,-973.228 L 51.1369,-973.145 L 51.0013,-973.068 L 50.8621,-972.998 L 50.7196,-972.935 L 50.5742,-972.879
 L 50.4263,-972.83 L 50.2761,-972.788 L 50.124,-972.754 L 49.9705,-972.727 L 49.8158,-972.708 L 49.6604,-972.697
 L 49.5046,-972.693 L 49.3488,-972.697 L 49.1934,-972.708 L 49.0387,-972.727 L 48.8852,-972.754 L 48.7331,-972.788
 L 48.5829,-972.83 L 48.435,-972.879 L 48.2896,-972.935 L 48.1471,-972.998 L 48.0079,-973.068 L 47.8723,-973.145
 L 47.7407,-973.228 L 47.6133,-973.318 L 47.4904,-973.414 L 47.3724,-973.515 L 47.2595,-973.623 L 47.1521,-973.736
 L 47.0503,-973.854 L 46.9544,-973.977 L 46.8647,-974.104 L 46.7813,-974.236 L 46.7045,-974.371 L 46.6344,-974.511
 L 46.5713,-974.653 L 46.5152,-974.798 L 46.4663,-974.946 L 46.4248,-975.097 L 46.3906,-975.249 L 46.364,-975.402
 L 46.3449,-975.557 L 46.3334,-975.712 z
M 46.3296,-1172.72 L 46.3334,-1172.87 L 46.3449,-1173.03 L 46.364,-1173.18 L 46.3906,-1173.34 L 46.4248,-1173.49
 L 46.4663,-1173.64 L 46.5152,-1173.79 L 46.5713,-1173.93 L 46.6344,-1174.08 L 46.7045,-1174.21 L 46.7813,-1174.35
 L 46.8647,-1174.48 L 46.9544,-1174.61 L 47.0503,-1174.73 L 47.1521,-1174.85 L 47.2595,-1174.96 L 47.3724,-1175.07
 L 47.4904,-1175.17 L 47.6133,-1175.27 L 47.7407,-1175.36 L 47.8723,-1175.44 L 48.0079,-1175.52 L 48.1471,-1175.59
 L 48.2896,-1175.65 L 48.435,-1175.71 L 48.5829,-1175.76 L 48.7331,-1175.8 L 48.8852,-1175.83 L 49.0387,-1175.86
 L 49.1934,-1175.88 L 49.3488,-1175.89 L 49.5046,-1175.89 L 49.6604,-1175.89 L 49.8158,-1175.88 L 49.9705,-1175.86
 L 50.124,-1175.83 L 50.2761,-1175.8 L 50.4263,-1175.76 L 50.5742,-1175.71 L 50.7196,-1175.65 L 50.8621,-1175.59
 L 51.0013,-1175.52 L 51.1369,-1175.44 L 51.2685,-1175.36 L 51.3959,-1175.27 L 51.5188,-1175.17 L 51.6368,-1175.07
 L 51.7497,-1174.96 L 51.8571,-1174.85 L 51.9589,-1174.73 L 52.0548,-1174.61 L 52.1445,-1174.48 L 52.2279,-1174.35
 L 52.3047,-1174.21 L 52.3748,-1174.08 L 52.4379,-1173.93 L 52.494,-1173.79 L 52.5429,-1173.64 L 52.5844,-1173.49
 L 52.6186,-1173.34 L 52.6452,-1173.18 L 52.6643,-1173.03 L 52.6758,-1172.87 L 52.6796,-1172.72 L 52.6758,-1172.56
 L 52.6643,-1172.41 L 52.6452,-1172.25 L 52.6186,-1172.1 L 52.5844,-1171.95 L 52.5429,-1171.8 L 52.494,-1171.65
 L 52.4379,-1171.5 L 52.3748,-1171.36 L 52.3047,-1171.22 L 52.2279,-1171.09 L 52.1445,-1170.95 L 52.0548,-1170.83
 L 51.9589,-1170.7 L 51.8571,-1170.59 L 51.7497,-1170.47 L 51.6368,-1170.37 L 51.5188,-1170.26 L 51.3959,-1170.17
 L 51.2685,-1170.08 L 51.1369,-1169.99 L 51.0013,-1169.92 L 50.8621,-1169.85 L 50.7196,-1169.78 L 50.5742,-1169.73
 L 50.4263,-1169.68 L 50.2761,-1169.64 L 50.124,-1169.6 L 49.9705,-1169.58 L 49.8158,-1169.56 L 49.6604,-1169.55
 L 49.5046,-1169.54 L 49.3488,-1169.55 L 49.1934,-1169.56 L 49.0387,-1169.58 L 48.8852,-1169.6 L 48.7331,-1169.64
 L 48.5829,-1169.68 L 48.435,-1169.73 L 48.2896,-1169.78 L 48.1471,-1169.85 L 48.0079,-1169.92 L 47.8723,-1169.99
 L 47.7407,-1170.08 L 47.6133,-1170.17 L 47.4904,-1170.26 L 47.3724,-1170.37 L 47.2595,-1170.47 L 47.1521,-1170.59
 L 47.0503,-1170.7 L 46.9544,-1170.83 L 46.8647,-1170.95 L 46.7813,-1171.09 L 46.7045,-1171.22 L 46.6344,-1171.36
 L 46.5713,-1171.5 L 46.5152,-1171.65 L 46.4663,-1171.8 L 46.4248,-1171.95 L 46.3906,-1172.1 L 46.364,-1172.25
 L 46.3449,-1172.41 L 46.3334,-1172.56 z
M 71.4462,-75.2703 L 71.4462,-77.1297 L 72.4515,-78.694 L 74.1429,-79.4664 L 75.9834,-79.2018 L 77.3886,-77.9841
 L 77.9125,-76.2 L 77.3886,-74.4159 L 75.9834,-73.1982 L 74.1429,-72.9336 L 72.4515,-73.706 z
M 71.4462,-176.87 L 71.4462,-178.73 L 72.4515,-180.294 L 74.1429,-181.066 L 75.9834,-180.802 L 77.3886,-179.584
 L 77.9125,-177.8 L 77.3886,-176.016 L 75.9834,-174.798 L 74.1429,-174.534 L 72.4515,-175.306 z
M 71.4462,-278.47 L 71.4462,-280.33 L 72.4515,-281.894 L 74.1429,-282.666 L 75.9834,-282.402 L 77.3886,-281.184
 L 77.9125,-279.4 L 77.3886,-277.616 L 75.9834,-276.398 L 74.1429,-276.134 L 72.4515,-276.906 z
M 71.4462,-380.07 L 71.4462,-381.93 L 72.4515,-383.494 L 74.1429,-384.266 L 75.9834,-384.002 L 77.3886,-382.784
 L 77.9125,-381 L 77.3886,-379.216 L 75.9834,-377.998 L 74.1429,-377.734 L 72.4515,-378.506 z
M 71.4462,-481.67 L 71.4462,-483.53 L 72.4515,-485.094 L 74.1429,-485.866 L 75.9834,-485.602 L 77.3886,-484.384
 L 77.9125,-482.6 L 77.3886,-480.816 L 75.9834,-479.598 L 74.1429,-479.334 L 72.4515,-480.106 z
M 71.4462,-583.27 L 71.4462,-585.13 L 72.4515,-586.694 L 74.1429,-587.466 L 75.9834,-587.202 L 77.3886,-585.984
 L 77.9125,-584.2 L 77.3886,-582.416 L 75.9834,-581.198 L 74.1429,-580.934 L 72.4515,-581.706 z
M 71.4462,-684.87 L 71.4462,-686.73 L 72.4515,-688.294 L 74.1429,-689.066 L 75.9834,-688.802 L 77.3886,-687.584
 L 77.9125,-685.8 L 77.3886,-684.016 L 75.9834,-682.798 L 74.1429,-682.534 L 72.4515,-683.306 z
M 71.4462,-786.47 L 71.4462,-788.33 L 72.4515,-789.894 L 74.1429,-790.666 L 75.9834,-790.402 L 77.3886,-789.184
 L 77.9125,-787.4 L 77.3886,-785.616 L 75.9834,-784.398 L 74.1429,-784.134 L 72.4515,-784.906 z
M 71.4462,-888.07 L 71.4462,-889.93 L 72.4515,-891.494 L 74.1429,-892.266 L 75.9834,-892.002 L 77.3886,-890.784
 L 77.9125,-889 L 77.3886,-887.216 L 75.9834,-885.998 L 74.1429,-885.734 L 72.4515,-886.506 z
M 71.4462,-989.67 L 71.4462,-991.53 L 72.4515,-993.094 L 74.1429,-993.866 L 75.9834,-993.602 L 77.3886,-992.384
 L 77.9125,-990.6 L 77.3886,-988.816 L 75.9834,-987.598 L 74.1429,-987.334 L 72.4515,-988.106 z
M 71.4462,-1091.27 L 71.4462,-1093.13 L 72.4515,-1094.69 L 74.1429,-1095.47 L 75.9834,-1095.2 L 77.3886,-1093.98
 L 77.9125,-1092.2 L 77.3886,-1090.42 L 75.9834,-1089.2 L 74.1429,-1088.93 L 72.4515,-1089.71 z
M 71.4462,-1192.87 L 71.4462,-1194.73 L 72.4515,-1196.29 L 74.1429,-1197.07 L 75.9834,-1196.8 L 77.3886,-1195.58
 L 77.9125,-1193.8 L 77.3886,-1192.02 L 75.9834,-1190.8 L 74.1429,-1190.53 L 72.4515,-1191.31 z
M 115.887,-50.8 L 116.096,-52.7804 L 116.711,-54.6742 L 117.707,-56.3987 L 119.039,-57.8785 L 120.65,-59.0489
 L 122.469,-59.8588 L 124.417,-60.2728 L 126.408,-60.2728 L 128.356,-59.8588 L 130.175,-59.0489 L 131.786,-57.8785
 L 133.118,-56.3987 L 134.114,-54.6742 L 134.729,-52.7804 L 134.938,-50.8 L 134.729,-48.8196 L 134.114,-46.9258
 L 133.118,-45.2013 L 131.786,-43.7215 L 130.175,-42.5511 L 128.356,-41.7412 L 126.408,-41.3272 L 124.417,-41.3272
 L 122.469,-41.7412 L 120.65,-42.5511 L 119.039,-43.7215 L 117.707,-45.2013 L 116.711,-46.9258 L 116.096,-48.8196
 z
M 115.887,-152.4 L 116.096,-154.38 L 116.711,-156.274 L 117.707,-157.999 L 119.039,-159.478 L 120.65,-160.649
 L 122.469,-161.459 L 124.417,-161.873 L 126.408,-161.873 L 128.356,-161.459 L 130.175,-160.649 L 131.786,-159.478
 L 133.118,-157.999 L 134.114,-156.274 L 134.729,-154.38 L 134.938,-152.4 L 134.729,-150.42 L 134.114,-148.526
 L 133.118,-146.801 L 131.786,-145.322 L 130.175,-144.151 L 128.356,-143.341 L 126.408,-142.927 L 124.417,-142.927
 L 122.469,-143.341 L 120.65,-144.151 L 119.039,-145.322 L 117.707,-146.801 L 116.711,-148.526 L 116.096,-150.42
 z
M 115.887,-254 L 116.096,-255.98 L 116.711,-257.874 L 117.707,-259.599 L 119.039,-261.078 L 120.65,-262.249
 L 122.469,-263.059 L 124.417,-263.473 L 126.408,-263.473 L 128.356,-263.059 L 130.175,-262.249 L 131.786,-261.078
 L 133.118,-259.599 L 134.114,-257.874 L 134.729,-255.98 L 134.938,-254 L 134.729,-252.02 L 134.114,-250.126
 L 133.118,-248.401 L 131.786,-246.922 L 130.175,-245.751 L 128.356,-244.941 L 126.408,-244.527 L 124.417,-244.527
 L 122.469,-244.941 L 120.65,-245.751 L 119.039,-246.922 L 117.707,-248.401 L 116.711,-250.126 L 116.096,-252.02
 z
M 115.887,-355.6 L 116.096,-357.58 L 116.711,-359.474 L 117.707,-361.199 L 119.039,-362.678 L 120.65,-363.849
 L 122.469,-364.659 L 124.417,-365.073 L 126.408,-365.073 L 128.356,-364.659 L 130.175,-363.849 L 131.786,-362.678
 L 133.118,-361.199 L 134.114,-359.474 L 134.729,-357.58 L 134.938,-355.6 L 134.729,-353.62 L 134.114,-351.726
 L 133.118,-350.001 L 131.786,-348.522 L 130.175,-347.351 L 128.356,-346.541 L 126.408,-346.127 L 124.417,-346.127
 L 122.469,-346.541 L 120.65,-347.351 L 119.039,-348.522 L 117.707,-350.001 L 116.711,-351.726 L 116.096,-353.62
 z
M 115.887,-457.2 L 116.096,-459.18 L 116.711,-461.074 L 117.707,-462.799 L 119.039,-464.278 L 120.65,-465.449
 L 122.469,-466.259 L 124.417,-466.673 L 126.408,-466.673 L 128.356,-466.259 L 130.175,-465.449 L 131.786,-464.278
 L 133.118,-462.799 L 134.114,-461.074 L 134.729,-459.18 L 134.938,-457.2 L 134.729,-455.22 L 134.114,-453.326
 L 133.118,-451.601 L 131.786,-450.122 L 130.175,-448.951 L 128.356,-448.141 L 126.408,-447.727 L 124.417,-447.727
 L 122.469,-448.141 L 120.65,-448.951 L 119.039,-450.122 L 117.707,-451.601 L 116.711,-453.326 L 116.096,-455.22
 z
M 115.887,-558.8 L 116.096,-560.78 L 116.711,-562.674 L 117.707,-564.399 L 119.039,-565.878 L 120.65,-567.049
 L 122.469,-567.859 L 124.417,-568.273 L 126.408,-568.273 L 128.356,-567.859 L 130.175,-567.049 L 131.786,-565.878
 L 133.118,-564.399 L 134.114,-562.674 L 134.729,-560.78 L 134.938,-558.8 L 134.729,-556.82 L 134.114,-554.926
 L 133.118,-553.201 L 131.786,-551.722 L 130.175,-550.551 L 128.356,-549.741 L 126.408,-549.327 L 124.417,-549.327
 L 122.469,-549.741 L 120.65,-550.551 L 119.039,-551.722 L 117.707,-553.201 L 116.711,-554.926 L 116.096,-556.82
 z
M 115.887,-660.4 L 116.096,-662.38 L 116.711,-664.274 L 117.707,-665.999 L 119.039,-667.478 L 120.65,-668.649
 L 122.469,-669.459 L 124.417,-669.873 L 126.408,-669.873 L 128.356,-669.459 L 130.175,-668.649 L 131.786,-667.478
 L 133.118,-665.999 L 134.114,-664.274 L 134.729,-662.38 L 134.938,-660.4 L 134.729,-658.42 L 134.114,-656.526
 L 133.118,-654.801 L 131.786,-653.322 L 130.175,-652.151 L 128.356,-651.341 L 126.408,-650.927 L 124.417,-650.927
 L 122.469,-651.341 L 120.65,-652.151 L 119.039,-653.322 L 117.707,-654.801 L 116.711,-656.526 L 116.096,-658.42
 z
M 115.887,-762 L 116.096,-763.98 L 116.711,-765.874 L 117.707,-767.599 L 119.039,-769.078 L 120.65,-770.249
 L 122.469,-771.059 L 124.417,-771.473 L 126.408,-771.473 L 128.356,-771.059 L 130.175,-770.249 L 131.786,-769.078
 L 133.118,-767.599 L 134.114,-765.874 L 134.729,-763.98 L 134.938,-762 L 134.729,-760.02 L 134.114,-758.126
 L 133.118,-756.401 L 131.786,-754.922 L 130.175,-753.751 L 128.356,-752.941 L 126.408,-752.527 L 124.417,-752.527
 L 122.469,-752.941 L 120.65,-753.751 L 119.039,-754.922 L 117.707,-756.401 L 116.711,-758.126 L 116.096,-760.02
 z
M 115.887,-863.6 L 116.096,-865.58 L 116.711,-867.474 L 117.707,-869.199 L 119.039,-870.678 L 120.65,-871.849
 L 122.469,-872.659 L 124.417,-873.073 L 126.408,-873.073 L 128.356,-872.659 L 130.175,-871.849 L 131.786,-870.678
 L 133.118,-869.199 L 134.114,-867.474 L 134.729,-865.58 L 134.938,-863.6 L 134.729,-861.62 L 134.114,-859.726
 L 133.118,-858.001 L 131.786,-856.522 L 130.175,-855.351 L 128.356,-854.541 L 126.408,-854.127 L 124.417,-854.127
 L 122.469,-854.541 L 120.65,-855.351 L 119.039,-856.522 L 117.707,-858.001 L 116.711,-859.726 L 116.096,-861.62
 z
M 115.887,-965.2 L 116.096,-967.18 L 116.711,-969.074 L 117.707,-970.799 L 119.039,-972.278 L 120.65,-973.449
 L 122.469,-974.259 L 124.417,-974.673 L 126.408,-974.673 L 128.356,-974.259 L 130.175,-973.449 L 131.786,-972.278
 L 133.118,-970.799 L 134.114,-969.074 L 134.729,-967.18 L 134.938,-965.2 L 134.729,-963.22 L 134.114,-961.326
 L 133.118,-959.601 L 131.786,-958.122 L 130.175,-956.951 L 128.356,-956.141 L 126.408,-955.727 L 124.417,-955.727
 L 122.469,-956.141 L 120.65,-956.951 L 119.039,-958.122 L 117.707,-959.601 L 116.711,-961.326 L 116.096,-963.22
 z
M 115.887,-1066.8 L 116.096,-1068.78 L 116.711,-1070.67 L 117.707,-1072.4 L 119.039,-1073.88 L 120.65,-1075.05
 L 122.469,-1075.86 L 124.417,-1076.27 L 126.408,-1076.27 L 128.356,-1075.86 L 130.175,-1075.05 L 131.786,-1073.88
 L 133.118,-1072.4 L 134.114,-1070.67 L 134.729,-1068.78 L 134.938,-1066.8 L 134.729,-1064.82 L 134.114,-1062.93
 L 133.118,-1061.2 L 131.786,-1059.72 L 130.175,-1058.55 L 128.356,-1057.74 L 126.408,-1057.33 L 124.417,-1057.33
 L 122.469,-1057.74 L 120.65,-1058.55 L 119.039,-1059.72 L 117.707,-1061.2 L 116.711,-1062.93 L 116.096,-1064.82
 z
M 115.887,-1168.4 L 116.096,-1170.38 L 116.711,-1172.27 L 117.707,-1174 L 119.039,-1175.48 L 120.65,-1176.65
 L 122.469,-1177.46 L 124.417,-1177.87 L 126.408,-1177.87 L 128.356,-1177.46 L 130.175,-1176.65 L 131.786,-1175.48
 L 133.118,-1174 L 134.114,-1172.27 L 134.729,-1170.38 L 134.938,-1168.4 L 134.729,-1166.42 L 134.114,-1164.53
 L 133.118,-1162.8 L 131.786,-1161.32 L 130.175,-1160.15 L 128.356,-1159.34 L 126.408,-1158.93 L 124.417,-1158.93
 L 122.469,-1159.34 L 120.65,-1160.15 L 119.039,-1161.32 L 117.707,-1162.8 L 116.711,-1164.53 L 116.096,-1166.42
 z
M 173.046,-75.2703 L 173.046,-77.1297 L 174.051,-78.694 L 175.743,-79.4664 L 177.583,-79.2018 L 178.989,-77.9841
 L 179.512,-76.2 L 178.989,-74.4159 L 177.583,-73.1982 L 175.743,-72.9336 L 174.051,-73.706 z
M 173.046,-176.87 L 173.046,-178.73 L 174.051,-180.294 L 175.743,-181.066 L 177.583,-180.802 L 178.989,-179.584
 L 179.512,-177.8 L 178.989,-176.016 L 177.583,-174.798 L 175.743,-174.534 L 174.051,-175.306 z
M 173.046,-278.47 L 173.046,-280.33 L 174.051,-281.894 L 175.743,-282.666 L 177.583,-282.402 L 178.989,-281.184
 L 179.512,-279.4 L 178.989,-277.616 L 177.583,-276.398 L 175.743,-276.134 L 174.051,-276.906 z
M 173.046,-380.07 L 173.046,-381.93 L 174.051,-383.494 L 175.743,-384.266 L 177.583,-384.002 L 178.989,-382.784
 L 179.512,-381 L 178.989,-379.216 L 177.583,-377.998 L 175.743,-377.734 L 174.051,-378.506 z
M 173.046,-481.67 L 173.046,-483.53 L 174.051,-485.094 L 175.743,-485.866 L 177.583,-485.602 L 178.989,-484.384
 L 179.512,-482.6 L 178.989,-480.816 L 177.583,-479.598 L 175.743,-479.334 L 174.051,-480.106 z
M 173.046,-583.27 L 173.046,-585.13 L 174.051,-586.694 L 175.743,-587.466 L 177.583,-587.202 L 178.989,-585.984
 L 179.512,-584.2 L 178.989,-582.416 L 177.583,-581.198 L 175.743,-580.934 L 174.051,-581.706 z
M 173.046,-684.87 L 173.046,-686.73 L 174.051,-688.294 L 175.743,-689.066 L 177.583,-688.802 L 178.989,-687.584
 L 179.512,-685.8 L 178.989,-684.016 L 177.583,-682.798 L 175.743,-682.534 L 174.051,-683.306 z
M 173.046,-786.47 L 173.046,-788.33 L 174.051,-789.894 L 175.743,-790.666 L 177.583,-790.402 L 178.989,-789.184
 L 179.512,-787.4 L 178.989,-785.616 L 177.583,-784.398 L 175.743,-784.134 L 174.051,-784.906 z
M 173.046,-888.07 L 173.046,-889.93 L 174.051,-891.494 L 175.743,-892.266 L 177.583,-892.002 L 178.989,-890.784
 L 179.512,-889 L 178.989,-887.216 L 177.583,-885.998 L 175.743,-885.734 L 174.051,-886.506 z
M 173.046,-989.67 L 173.046,-991.53 L 174.051,-993.094 L 175.743,-993.866 L 177.583,-993.602 L 178.989,-992.384
 L 179.512,-990.6 L 178.989,-988.816 L 177.583,-987.598 L 175.743,-987.334 L 174.051,-988.106 z
M 173.046,-1091.27 L 173.046,-1093.13 L 174.051,-1094.69 L 175.743,-1095.47 L 177.583,-1095.2 L 178.989,-1093.98
 L 179.512,-1092.2 L 178.989,-1090.42 L 177.583,-1089.2 L 175.743,-1088.93 L 174.051,-1089.71 z
M 173.046,-1192.87 L 173.046,-1194.73 L 174.051,-1196.29 L 175.743,-1197.07 L 177.583,-1196.8 L 178.989,-1195.58
 L 179.512,-1193.8 L 178.989,-1192.02 L 177.583,-1190.8 L 175.743,-1190.53 L 174.051,-1191.31 z
M 226.72,-101.6 L 226.724,-101.756 L 226.736,-101.911 L 226.755,-102.066 L 226.781,-102.219 L 226.816,-102.371
 L 226.857,-102.522 L 226.906,-102.67 L 226.962,-102.815 L 227.025,-102.957 L 227.095,-103.097 L 227.172,-103.232
 L 227.255,-103.364 L 227.345,-103.491 L 227.441,-103.614 L 227.543,-103.732 L 227.65,-103.845 L 227.763,-103.953
 L 227.881,-104.054 L 228.004,-104.15 L 228.131,-104.24 L 228.263,-104.323 L 228.399,-104.4 L 228.538,-104.47
 L 228.68,-104.533 L 228.826,-104.589 L 228.974,-104.638 L 229.124,-104.68 L 229.276,-104.714 L 229.43,-104.741
 L 229.584,-104.76 L 229.74,-104.771 L 229.895,-104.775 L 230.051,-104.771 L 230.207,-104.76 L 230.361,-104.741
 L 230.515,-104.714 L 230.667,-104.68 L 230.817,-104.638 L 230.965,-104.589 L 231.11,-104.533 L 231.253,-104.47
 L 231.392,-104.4 L 231.528,-104.323 L 231.659,-104.24 L 231.787,-104.15 L 231.91,-104.054 L 232.028,-103.953
 L 232.14,-103.845 L 232.248,-103.732 L 232.35,-103.614 L 232.446,-103.491 L 232.535,-103.364 L 232.619,-103.232
 L 232.695,-103.097 L 232.766,-102.957 L 232.829,-102.815 L 232.885,-102.67 L 232.934,-102.522 L 232.975,-102.371
 L 233.009,-102.219 L 233.036,-102.066 L 233.055,-101.911 L 233.067,-101.756 L 233.07,-101.6 L 233.067,-101.444
 L 233.055,-101.289 L 233.036,-101.134 L 233.009,-100.981 L 232.975,-100.829 L 232.934,-100.678 L 232.885,-100.53
 L 232.829,-100.385 L 232.766,-100.243 L 232.695,-100.103 L 232.619,-99.9677 L 232.535,-99.8361 L 232.446,-99.7087
 L 232.35,-99.5858 L 232.248,-99.4678 L 232.14,-99.3549 L 232.028,-99.2475 L 231.91,-99.1457 L 231.787,-99.0498
 L 231.659,-98.9601 L 231.528,-98.8767 L 231.392,-98.7999 L 231.253,-98.7298 L 231.11,-98.6667 L 230.965,-98.6106
 L 230.817,-98.5617 L 230.667,-98.5202 L 230.515,-98.486 L 230.361,-98.4594 L 230.207,-98.4403 L 230.051,-98.4288
 L 229.895,-98.425 L 229.74,-98.4288 L 229.584,-98.4403 L 229.43,-98.4594 L 229.276,-98.486 L 229.124,-98.5202
 L 228.974,-98.5617 L 228.826,-98.6106 L 228.68,-98.6667 L 228.538,-98.7298 L 228.399,-98.7999 L 228.263,-98.8767
 L 228.131,-98.9601 L 228.004,-99.0498 L 227.881,-99.1457 L 227.763,-99.2475 L 227.65,-99.3549 L 227.543,-99.4678
 L 227.441,-99.5858 L 227.345,-99.7087 L 227.255,-99.8361 L 227.172,-99.9677 L 227.095,-100.103 L 227.025,-100.243
 L 226.962,-100.385 L 226.906,-100.53 L 226.857,-100.678 L 226.816,-100.829 L 226.781,-100.981 L 226.755,-101.134
 L 226.736,-101.289 L 226.724,-101.444 z
M 226.72,-298.45 L 226.724,-298.606 L 226.736,-298.761 L 226.755,-298.916 L 226.781,-299.069 L 226.816,-299.221
 L 226.857,-299.372 L 226.906,-299.52 L 226.962,-299.665 L 227.025,-299.807 L 227.095,-299.947 L 227.172,-300.082
 L 227.255,-300.214 L 227.345,-300.341 L 227.441,-300.464 L 227.543,-300.582 L 227.65,-300.695 L 227.763,-300.803
 L 227.881,-300.904 L 228.004,-301 L 228.131,-301.09 L 228.263,-301.173 L 228.399,-301.25 L 228.538,-301.32
 L 228.68,-301.383 L 228.826,-301.439 L 228.974,-301.488 L 229.124,-301.53 L 229.276,-301.564 L 229.43,-301.591
 L 229.584,-301.61 L 229.74,-301.621 L 229.895,-301.625 L 230.051,-301.621 L 230.207,-301.61 L 230.361,-301.591
 L 230.515,-301.564 L 230.667,-301.53 L 230.817,-301.488 L 230.965,-301.439 L 231.11,-301.383 L 231.253,-301.32
 L 231.392,-301.25 L 231.528,-301.173 L 231.659,-301.09 L 231.787,-301 L 231.91,-300.904 L 232.028,-300.803
 L 232.14,-300.695 L 232.248,-300.582 L 232.35,-300.464 L 232.446,-300.341 L 232.535,-300.214 L 232.619,-300.082
 L 232.695,-299.947 L 232.766,-299.807 L 232.829,-299.665 L 232.885,-299.52 L 232.934,-299.372 L 232.975,-299.221
 L 233.009,-299.069 L 233.036,-298.916 L 233.055,-298.761 L 233.067,-298.606 L 233.07,-298.45 L 233.067,-298.294
 L 233.055,-298.139 L 233.036,-297.984 L 233.009,-297.831 L 232.975,-297.679 L 232.934,-297.528 L 232.885,-297.38
 L 232.829,-297.235 L 232.766,-297.093 L 232.695,-296.953 L 232.619,-296.818 L 232.535,-296.686 L 232.446,-296.559
 L 232.35,-296.436 L 232.248,-296.318 L 232.14,-296.205 L 232.028,-296.097 L 231.91,-295.996 L 231.787,-295.9
 L 231.659,-295.81 L 231.528,-295.727 L 231.392,-295.65 L 231.253,-295.58 L 231.11,-295.517 L 230.965,-295.461
 L 230.817,-295.412 L 230.667,-295.37 L 230.515,-295.336 L 230.361,-295.309 L 230.207,-295.29 L 230.051,-295.279
 L 229.895,-295.275 L 229.74,-295.279 L 229.584,-295.29 L 229.43,-295.309 L 229.276,-295.336 L 229.124,-295.37
 L 228.974,-295.412 L 228.826,-295.461 L 228.68,-295.517 L 228.538,-295.58 L 228.399,-295.65 L 228.263,-295.727
 L 228.131,-295.81 L 228.004,-295.9 L 227.881,-295.996 L 227.763,-296.097 L 227.65,-296.205 L 227.543,-296.318
 L 227.441,-296.436 L 227.345,-296.559 L 227.255,-296.686 L 227.172,-296.818 L 227.095,-296.953 L 227.025,-297.093
 L 226.962,-297.235 L 226.906,-297.38 L 226.857,-297.528 L 226.816,-297.679 L 226.781,-297.831 L 226.755,-297.984
 L 226.736,-298.139 L 226.724,-298.294 z
M 226.72,-495.3 L 226.724,-495.456 L 226.736,-495.611 L 226.755,-495.766 L 226.781,-495.919 L 226.816,-496.071
 L 226.857,-496.222 L 226.906,-496.37 L 226.962,-496.515 L 227.025,-496.657 L 227.095,-496.797 L 227.172,-496.932
 L 227.255,-497.064 L 227.345,-497.191 L 227.441,-497.314 L 227.543,-497.432 L 227.65,-497.545 L 227.763,-497.653
 L 227.881,-497.754 L 228.004,-497.85 L 228.131,-497.94 L 228.263,-498.023 L 228.399,-498.1 L 228.538,-498.17
 L 228.68,-498.233 L 228.826,-498.289 L 228.974,-498.338 L 229.124,-498.38 L 229.276,-498.414 L 229.43,-498.441
 L 229.584,-498.46 L 229.74,-498.471 L 229.895,-498.475 L 230.051,-498.471 L 230.207,-498.46 L 230.361,-498.441
 L 230.515,-498.414 L 230.667,-498.38 L 230.817,-498.338 L 230.965,-498.289 L 231.11,-498.233 L 231.253,-498.17
 L 231.392,-498.1 L 231.528,-498.023 L 231.659,-497.94 L 231.787,-497.85 L 231.91,-497.754 L 232.028,-497.653
 L 232.14,-497.545 L 232.248,-497.432 L 232.35,-497.314 L 232.446,-497.191 L 232.535,-497.064 L 232.619,-496.932
 L 232.695,-496.797 L 232.766,-496.657 L 232.829,-496.515 L 232.885,-496.37 L 232.934,-496.222 L 232.975,-496.071
 L 233.009,-495.919 L 233.036,-495.766 L 233.055,-495.611 L 233.067,-495.456 L 233.07,-495.3 L 233.067,-495.144
 L 233.055,-494.989 L 233.036,-494.834 L 233.009,-494.681 L 232.975,-494.529 L 232.934,-494.378 L 232.885,-494.23
 L 232.829,-494.085 L 232.766,-493.943 L 232.695,-493.803 L 232.619,-493.668 L 232.535,-493.536 L 232.446,-493.409
 L 232.35,-493.286 L 232.248,-493.168 L 232.14,-493.055 L 232.028,-492.947 L 231.91,-492.846 L 231.787,-492.75
 L 231.659,-492.66 L 231.528,-492.577 L 231.392,-492.5 L 231.253,-492.43 L 231.11,-492.367 L 230.965,-492.311
 L 230.817,-492.262 L 230.667,-492.22 L 230.515,-492.186 L 230.361,-492.159 L 230.207,-492.14 L 230.051,-492.129
 L 229.895,-492.125 L 229.74,-492.129 L 229.584,-492.14 L 229.43,-492.159 L 229.276,-492.186 L 229.124,-492.22
 L 228.974,-492.262 L 228.826,-492.311 L 228.68,-492.367 L 228.538,-492.43 L 228.399,-492.5 L 228.263,-492.577
 L 228.131,-492.66 L 228.004,-492.75 L 227.881,-492.846 L 227.763,-492.947 L 227.65,-493.055 L 227.543,-493.168
 L 227.441,-493.286 L 227.345,-493.409 L 227.255,-493.536 L 227.172,-493.668 L 227.095,-493.803 L 227.025,-493.943
 L 226.962,-494.085 L 226.906,-494.23 L 226.857,-494.378 L 226.816,-494.529 L 226.781,-494.681 L 226.755,-494.834
 L 226.736,-494.989 L 226.724,-495.144 z
M 226.72,-637.159 L 226.724,-637.315 L 226.736,-637.47 L 226.755,-637.625 L 226.781,-637.778 L 226.816,-637.93
 L 226.857,-638.081 L 226.906,-638.229 L 226.962,-638.374 L 227.025,-638.516 L 227.095,-638.656 L 227.172,-638.791
 L 227.255,-638.923 L 227.345,-639.05 L 227.441,-639.173 L 227.543,-639.291 L 227.65,-639.404 L 227.763,-639.512
 L 227.881,-639.613 L 228.004,-639.709 L 228.131,-639.799 L 228.263,-639.882 L 228.399,-639.959 L 228.538,-640.029
 L 228.68,-640.092 L 228.826,-640.148 L 228.974,-640.197 L 229.124,-640.239 L 229.276,-640.273 L 229.43,-640.3
 L 229.584,-640.319 L 229.74,-640.33 L 229.895,-640.334 L 230.051,-640.33 L 230.207,-640.319 L 230.361,-640.3
 L 230.515,-640.273 L 230.667,-640.239 L 230.817,-640.197 L 230.965,-640.148 L 231.11,-640.092 L 231.253,-640.029
 L 231.392,-639.959 L 231.528,-639.882 L 231.659,-639.799 L 231.787,-639.709 L 231.91,-639.613 L 232.028,-639.512
 L 232.14,-639.404 L 232.248,-639.291 L 232.35,-639.173 L 232.446,-639.05 L 232.535,-638.923 L 232.619,-638.791
 L 232.695,-638.656 L 232.766,-638.516 L 232.829,-638.374 L 232.885,-638.229 L 232.934,-638.081 L 232.975,-637.93
 L 233.009,-637.778 L 233.036,-637.625 L 233.055,-637.47 L 233.067,-637.315 L 233.07,-637.159 L 233.067,-637.003
 L 233.055,-636.848 L 233.036,-636.693 L 233.009,-636.54 L 232.975,-636.388 L 232.934,-636.237 L 232.885,-636.089
 L 232.829,-635.944 L 232.766,-635.802 L 232.695,-635.662 L 232.619,-635.527 L 232.535,-635.395 L 232.446,-635.268
 L 232.35,-635.145 L 232.248,-635.027 L 232.14,-634.914 L 232.028,-634.806 L 231.91,-634.705 L 231.787,-634.609
 L 231.659,-634.519 L 231.528,-634.436 L 231.392,-634.359 L 231.253,-634.289 L 231.11,-634.226 L 230.965,-634.17
 L 230.817,-634.121 L 230.667,-634.079 L 230.515,-634.045 L 230.361,-634.018 L 230.207,-633.999 L 230.051,-633.988
 L 229.895,-633.984 L 229.74,-633.988 L 229.584,-633.999 L 229.43,-634.018 L 229.276,-634.045 L 229.124,-634.079
 L 228.974,-634.121 L 228.826,-634.17 L 228.68,-634.226 L 228.538,-634.289 L 228.399,-634.359 L 228.263,-634.436
 L 228.131,-634.519 L 228.004,-634.609 L 227.881,-634.705 L 227.763,-634.806 L 227.65,-634.914 L 227.543,-635.027
 L 227.441,-635.145 L 227.345,-635.268 L 227.255,-635.395 L 227.172,-635.527 L 227.095,-635.662 L 227.025,-635.802
 L 226.962,-635.944 L 226.906,-636.089 L 226.857,-636.237 L 226.816,-636.388 L 226.781,-636.54 L 226.755,-636.693
 L 226.736,-636.848 L 226.724,-637.003 z
M 226.72,-834.009 L 226.724,-834.165 L 226.736,-834.32 L 226.755,-834.475 L 226.781,-834.628 L 226.816,-834.78
 L 226.857,-834.931 L 226.906,-835.079 L 226.962,-835.224 L 227.025,-835.366 L 227.095,-835.506 L 227.172,-835.641
 L 227.255,-835.773 L 227.345,-835.9 L 227.441,-836.023 L 227.543,-836.141 L 227.65,-836.254 L 227.763,-836.362
 L 227.881,-836.463 L 228.004,-836.559 L 228.131,-836.649 L 228.263,-836.732 L 228.399,-836.809 L 228.538,-836.879
 L 228.68,-836.942 L 228.826,-836.998 L 228.974,-837.047 L 229.124,-837.089 L 229.276,-837.123 L 229.43,-837.15
 L 229.584,-837.169 L 229.74,-837.18 L 229.895,-837.184 L 230.051,-837.18 L 230.207,-837.169 L 230.361,-837.15
 L 230.515,-837.123 L 230.667,-837.089 L 230.817,-837.047 L 230.965,-836.998 L 231.11,-836.942 L 231.253,-836.879
 L 231.392,-836.809 L 231.528,-836.732 L 231.659,-836.649 L 231.787,-836.559 L 231.91,-836.463 L 232.028,-836.362
 L 232.14,-836.254 L 232.248,-836.141 L 232.35,-836.023 L 232.446,-835.9 L 232.535,-835.773 L 232.619,-835.641
 L 232.695,-835.506 L 232.766,-835.366 L 232.829,-835.224 L 232.885,-835.079 L 232.934,-834.931 L 232.975,-834.78
 L 233.009,-834.628 L 233.036,-834.475 L 233.055,-834.32 L 233.067,-834.165 L 233.07,-834.009 L 233.067,-833.853
 L 233.055,-833.698 L 233.036,-833.543 L 233.009,-833.39 L 232.975,-833.238 L 232.934,-833.087 L 232.885,-832.939
 L 232.829,-832.794 L 232.766,-832.652 L 232.695,-832.512 L 232.619,-832.377 L 232.535,-832.245 L 232.446,-832.118
 L 232.35,-831.995 L 232.248,-831.877 L 232.14,-831.764 L 232.028,-831.656 L 231.91,-831.555 L 231.787,-831.459
 L 231.659,-831.369 L 231.528,-831.286 L 231.392,-831.209 L 231.253,-831.139 L 231.11,-831.076 L 230.965,-831.02
 L 230.817,-830.971 L 230.667,-830.929 L 230.515,-830.895 L 230.361,-830.868 L 230.207,-830.849 L 230.051,-830.838
 L 229.895,-830.834 L 229.74,-830.838 L 229.584,-830.849 L 229.43,-830.868 L 229.276,-830.895 L 229.124,-830.929
 L 228.974,-830.971 L 228.826,-831.02 L 228.68,-831.076 L 228.538,-831.139 L 228.399,-831.209 L 228.263,-831.286
 L 228.131,-831.369 L 228.004,-831.459 L 227.881,-831.555 L 227.763,-831.656 L 227.65,-831.764 L 227.543,-831.877
 L 227.441,-831.995 L 227.345,-832.118 L 227.255,-832.245 L 227.172,-832.377 L 227.095,-832.512 L 227.025,-832.652
 L 226.962,-832.794 L 226.906,-832.939 L 226.857,-833.087 L 226.816,-833.238 L 226.781,-833.39 L 226.755,-833.543
 L 226.736,-833.698 L 226.724,-833.853 z
M 226.72,-975.868 L 226.724,-976.024 L 226.736,-976.179 L 226.755,-976.334 L 226.781,-976.487 L 226.816,-976.639
 L 226.857,-976.79 L 226.906,-976.938 L 226.962,-977.083 L 227.025,-977.225 L 227.095,-977.365 L 227.172,-977.5
 L 227.255,-977.632 L 227.345,-977.759 L 227.441,-977.882 L 227.543,-978 L 227.65,-978.113 L 227.763,-978.221
 L 227.881,-978.322 L 228.004,-978.418 L 228.131,-978.508 L 228.263,-978.591 L 228.399,-978.668 L 228.538,-978.738
 L 228.68,-978.801 L 228.826,-978.857 L 228.974,-978.906 L 229.124,-978.948 L 229.276,-978.982 L 229.43,-979.009
 L 229.584,-979.028 L 229.74,-979.039 L 229.895,-979.043 L 230.051,-979.039 L 230.207,-979.028 L 230.361,-979.009
 L 230.515,-978.982 L 230.667,-978.948 L 230.817,-978.906 L 230.965,-978.857 L 231.11,-978.801 L 231.253,-978.738
 L 231.392,-978.668 L 231.528,-978.591 L 231.659,-978.508 L 231.787,-978.418 L 231.91,-978.322 L 232.028,-978.221
 L 232.14,-978.113 L 232.248,-978 L 232.35,-977.882 L 232.446,-977.759 L 232.535,-977.632 L 232.619,-977.5
 L 232.695,-977.365 L 232.766,-977.225 L 232.829,-977.083 L 232.885,-976.938 L 232.934,-976.79 L 232.975,-976.639
 L 233.009,-976.487 L 233.036,-976.334 L 233.055,-976.179 L 233.067,-976.024 L 233.07,-975.868 L 233.067,-975.712
 L 233.055,-975.557 L 233.036,-975.402 L 233.009,-975.249 L 232.975,-975.097 L 232.934,-974.946 L 232.885,-974.798
 L 232.829,-974.653 L 232.766,-974.511 L 232.695,-974.371 L 232.619,-974.236 L 232.535,-974.104 L 232.446,-973.977
 L 232.35,-973.854 L 232.248,-973.736 L 232.14,-973.623 L 232.028,-973.515 L 231.91,-973.414 L 231.787,-973.318
 L 231.659,-973.228 L 231.528,-973.145 L 231.392,-973.068 L 231.253,-972.998 L 231.11,-972.935 L 230.965,-972.879
 L 230.817,-972.83 L 230.667,-972.788 L 230.515,-972.754 L 230.361,-972.727 L 230.207,-972.708 L 230.051,-972.697
 L 229.895,-972.693 L 229.74,-972.697 L 229.584,-972.708 L 229.43,-972.727 L 229.276,-972.754 L 229.124,-972.788
 L 228.974,-972.83 L 228.826,-972.879 L 228.68,-972.935 L 228.538,-972.998 L 228.399,-973.068 L 228.263,-973.145
 L 228.131,-973.228 L 228.004,-973.318 L 227.881,-973.414 L 227.763,-973.515 L 227.65,-973.623 L 227.543,-973.736
 L 227.441,-973.854 L 227.345,-973.977 L 227.255,-974.104 L 227.172,-974.236 L 227.095,-974.371 L 227.025,-974.511
 L 226.962,-974.653 L 226.906,-974.798 L 226.857,-974.946 L 226.816,-975.097 L 226.781,-975.249 L 226.755,-975.402
 L 226.736,-975.557 L 226.724,-975.712 z
M 226.72,-1172.72 L 226.724,-1172.87 L 226.736,-1173.03 L 226.755,-1173.18 L 226.781,-1173.34 L 226.816,-1173.49
 L 226.857,-1173.64 L 226.906,-1173.79 L 226.962,-1173.93 L 227.025,-1174.08 L 227.095,-1174.21 L 227.172,-1174.35
 L 227.255,-1174.48 L 227.345,-1174.61 L 227.441,-1174.73 L 227.543,-1174.85 L 227.65,-1174.96 L 227.763,-1175.07
 L 227.881,-1175.17 L 228.004,-1175.27 L 228.131,-1175.36 L 228.263,-1175.44 L 228.399,-1175.52 L 228.538,-1175.59
 L 228.68,-1175.65 L 228.826,-1175.71 L 228.974,-1175.76 L 229.124,-1175.8 L 229.276,-1175.83 L 229.43,-1175.86
 L 229.584,-1175.88 L 229.74,-1175.89 L 229.895,-1175.89 L 230.051,-1175.89 L 230.207,-1175.88 L 230.361,-1175.86
 L 230.515,-1175.83 L 230.667,-1175.8 L 230.817,-1175.76 L 230.965,-1175.71 L 231.11,-1175.65 L 231.253,-1175.59
 L 231.392,-1175.52 L 231.528,-1175.44 L 231.659,-1175.36 L 231.787,-1175.27 L 231.91,-1175.17 L 232.028,-1175.07
 L 232.14,-1174.96 L 232.248,-1174.85 L 232.35,-1174.73 L 232.446,-1174.61 L 232.535,-1174.48 L 232.619,-1174.35
 L 232.695,-1174.21 L 232.766,-1174.08 L 232.829,-1173.93 L 232.885,-1173.79 L 232.934,-1173.64 L 232.975,-1173.49
 L 233.009,-1173.34 L 233.036,-1173.18 L 233.055,-1173.03 L 233.067,-1172.87 L 233.07,-1172.72 L 233.067,-1172.56
 L 233.055,-1172.41 L 233.036,-1172.25 L 233.009,-1172.1 L 232.975,-1171.95 L 232.934,-1171.8 L 232.885,-1171.65
 L 232.829,-1171.5 L 232.766,-1171.36 L 232.695,-1171.22 L 232.619,-1171.09 L 232.535,-1170.95 L 232.446,-1170.83
 L 232.35,-1170.7 L 232.248,-1170.59 L 232.14,-1170.47 L 232.028,-1170.37 L 231.91,-1170.26 L 231.787,-1170.17
 L 231.659,-1170.08 L 231.528,-1169.99 L 231.392,-1169.92 L 231.253,-1169.85 L 231.11,-1169.78 L 230.965,-1169.73
 L 230.817,-1169.68 L 230.667,-1169.64 L 230.515,-1169.6 L 230.361,-1169.58 L 230.207,-1169.56 L 230.051,-1169.55
 L 229.895,-1169.54 L 229.74,-1169.55 L 229.584,-1169.56 L 229.43,-1169.58 L 229.276,-1169.6 L 229.124,-1169.64
 L 228.974,-1169.68 L 228.826,-1169.73 L 228.68,-1169.78 L 228.538,-1169.85 L 228.399,-1169.92 L 228.263,-1169.99
 L 228.131,-1170.08 L 228.004,-1170.17 L 227.881,-1170.26 L 227.763,-1170.37 L 227.65,-1170.47 L 227.543,-1170.59
 L 227.441,-1170.7 L 227.345,-1170.83 L 227.255,-1170.95 L 227.172,-1171.09 L 227.095,-1171.22 L 227.025,-1171.36
 L 226.962,-1171.5 L 226.906,-1171.65 L 226.857,-1171.8 L 226.816,-1171.95 L 226.781,-1172.1 L 226.755,-1172.25
 L 226.736,-1172.41 L 226.724,-1172.56 z
" stroke="black" fill="lightgray" stroke-width="0.5"/>
</svg>
