<?xml version="1.0" standalone="no"?>
<!DOCTYPE svg PUBLIC "-//W3C//DTD SVG 1.1//EN" "http://www.w3.org/Graphics/SVG/1.1/DTD/svg11.dtd">
<svg width="251mm" height="1220mm" viewBox="0 -1220 251 1220" xmlns="http://www.w3.org/2000/svg" version="1.1">
<title>OpenSCAD Model</title>
<path d="
M 250.825,-1219.2 L 0,-1219.2 L 0,-0 L 250.825,-0 z
M 49.2708,-1167.96 L 49.0375,-1167.98 L 48.8054,-1168 L 48.575,-1168.04 L 48.3468,-1168.1 L 48.1214,-1168.16
 L 47.8993,-1168.23 L 47.6811,-1168.32 L 47.4673,-1168.41 L 47.2584,-1168.52 L 47.0549,-1168.63 L 46.8573,-1168.76
 L 46.6661,-1168.89 L 46.4817,-1169.03 L 46.3046,-1169.19 L 46.1352,-1169.35 L 45.974,-1169.52 L 45.8212,-1169.7
 L 45.6773,-1169.88 L 45.5426,-1170.07 L 45.4175,-1170.27 L 45.3022,-1170.47 L 45.1971,-1170.68 L 45.1023,-1170.89
 L 45.0181,-1171.11 L 44.9448,-1171.33 L 44.8824,-1171.56 L 44.8312,-1171.79 L 44.7912,-1172.02 L 44.7625,-1172.25
 L 44.7453,-1172.48 L 44.7396,-1172.72 L 44.7453,-1172.95 L 44.7625,-1173.19 L 44.7912,-1173.42 L 44.8312,-1173.65
 L 44.8824,-1173.88 L 44.9448,-1174.1 L 45.0181,-1174.32 L 45.1023,-1174.54 L 45.1971,-1174.76 L 45.3022,-1174.96
 L 45.4175,-1175.17 L 45.5426,-1175.37 L 45.6773,-1175.56 L 45.8212,-1175.74 L 45.974,-1175.92 L 46.1352,-1176.09
 L 46.3046,-1176.25 L 46.4817,-1176.4 L 46.6661,-1176.55 L 46.8573,-1176.68 L 47.0549,-1176.81 L 47.2584,-1176.92
 L 47.4673,-1177.03 L 47.6811,-1177.12 L 47.8993,-1177.2 L 48.1214,-1177.28 L 48.3468,-1177.34 L 48.575,-1177.39
 L 48.8054,-1177.43 L 49.0375,-1177.46 L 49.2708,-1177.48 L 49.5046,-1177.48 L 49.7384,-1177.48 L 49.9716,-1177.46
 L 50.2038,-1177.43 L 50.4342,-1177.39 L 50.6624,-1177.34 L 50.8878,-1177.28 L 51.1099,-1177.2 L 51.3281,-1177.12
 L 51.5419,-1177.03 L 51.7508,-1176.92 L 51.9543,-1176.81 L 52.1519,-1176.68 L 52.3431,-1176.55 L 52.5275,-1176.4
 L 52.7046,-1176.25 L 52.874,-1176.09 L 53.0352,-1175.92 L 53.188,-1175.74 L 53.3319,-1175.56 L 53.4666,-1175.37
 L 53.5917,-1175.17 L 53.707,-1174.96 L 53.8121,-1174.76 L 53.9069,-1174.54 L 53.9911,-1174.32 L 54.0644,-1174.1
 L 54.1268,-1173.88 L 54.178,-1173.65 L 54.218,-1173.42 L 54.2467,-1173.19 L 54.2639,-1172.95 L 54.2696,-1172.72
 L 54.2639,-1172.48 L 54.2467,-1172.25 L 54.218,-1172.02 L 54.178,-1171.79 L 54.1268,-1171.56 L 54.0644,-1171.33
 L 53.9911,-1171.11 L 53.9069,-1170.89 L 53.8121,-1170.68 L 53.707,-1170.47 L 53.5917,-1170.27 L 53.4666,-1170.07
 L 53.3319,-1169.88 L 53.188,-1169.7 L 53.0352,-1169.52 L 52.874,-1169.35 L 52.7046,-1169.19 L 52.5275,-1169.03
 L 52.3431,-1168.89 L 52.1519,-1168.76 L 51.9543,-1168.63 L 51.7508,-1168.52 L 51.5419,-1168.41 L 51.3281,-1168.32
 L 51.1099,-1168.23 L 50.8878,-1168.16 L 50.6624,-1168.1 L 50.4342,-1168.04 L 50.2038,-1168 L 49.9716,-1167.98
 L 49.7384,-1167.96 L 49.5046,-1167.95 z
M 229.662,-1167.96 L 229.428,-1167.98 L 229.196,-1168 L 228.966,-1168.04 L 228.738,-1168.1 L 228.512,-1168.16
 L 228.29,-1168.23 L 228.072,-1168.32 L 227.858,-1168.41 L 227.649,-1168.52 L 227.446,-1168.63 L 227.248,-1168.76
 L 227.057,-1168.89 L 226.873,-1169.03 L 226.695,-1169.19 L 226.526,-1169.35 L 226.365,-1169.52 L 226.212,-1169.7
 L 226.068,-1169.88 L 225.933,-1170.07 L 225.808,-1170.27 L 225.693,-1170.47 L 225.588,-1170.68 L 225.493,-1170.89
 L 225.409,-1171.11 L 225.336,-1171.33 L 225.273,-1171.56 L 225.222,-1171.79 L 225.182,-1172.02 L 225.153,-1172.25
 L 225.136,-1172.48 L 225.13,-1172.72 L 225.136,-1172.95 L 225.153,-1173.19 L 225.182,-1173.42 L 225.222,-1173.65
 L 225.273,-1173.88 L 225.336,-1174.1 L 225.409,-1174.32 L 225.493,-1174.54 L 225.588,-1174.76 L 225.693,-1174.96
 L 225.808,-1175.17 L 225.933,-1175.37 L 226.068,-1175.56 L 226.212,-1175.74 L 226.365,-1175.92 L 226.526,-1176.09
 L 226.695,-1176.25 L 226.873,-1176.4 L 227.057,-1176.55 L 227.248,-1176.68 L 227.446,-1176.81 L 227.649,-1176.92
 L 227.858,-1177.03 L 228.072,-1177.12 L 228.29,-1177.2 L 228.512,-1177.28 L 228.738,-1177.34 L 228.966,-1177.39
 L 229.196,-1177.43 L 229.428,-1177.46 L 229.662,-1177.48 L 229.895,-1177.48 L 230.129,-1177.48 L 230.362,-1177.46
 L 230.595,-1177.43 L 230.825,-1177.39 L 231.053,-1177.34 L 231.279,-1177.28 L 231.501,-1177.2 L 231.719,-1177.12
 L 231.933,-1177.03 L 232.142,-1176.92 L 232.345,-1176.81 L 232.543,-1176.68 L 232.734,-1176.55 L 232.918,-1176.4
 L 233.095,-1176.25 L 233.265,-1176.09 L 233.426,-1175.92 L 233.579,-1175.74 L 233.723,-1175.56 L 233.857,-1175.37
 L 233.982,-1175.17 L 234.098,-1174.96 L 234.203,-1174.76 L 234.298,-1174.54 L 234.382,-1174.32 L 234.455,-1174.1
 L 234.518,-1173.88 L 234.569,-1173.65 L 234.609,-1173.42 L 234.637,-1173.19 L 234.655,-1172.95 L 234.66,-1172.72
 L 234.655,-1172.48 L 234.637,-1172.25 L 234.609,-1172.02 L 234.569,-1171.79 L 234.518,-1171.56 L 234.455,-1171.33
 L 234.382,-1171.11 L 234.298,-1170.89 L 234.203,-1170.68 L 234.098,-1170.47 L 233.982,-1170.27 L 233.857,-1170.07
 L 233.723,-1169.88 L 233.579,-1169.7 L 233.426,-1169.52 L 233.265,-1169.35 L 233.095,-1169.19 L 232.918,-1169.03
 L 232.734,-1168.89 L 232.543,-1168.76 L 232.345,-1168.63 L 232.142,-1168.52 L 231.933,-1168.41 L 231.719,-1168.32
 L 231.501,-1168.23 L 231.279,-1168.16 L 231.053,-1168.1 L 230.825,-1168.04 L 230.595,-1168 L 230.362,-1167.98
 L 230.129,-1167.96 L 229.895,-1167.95 z
M 49.2708,-971.109 L 49.0375,-971.126 L 48.8054,-971.155 L 48.575,-971.195 L 48.3468,-971.246 L 48.1214,-971.308
 L 47.8993,-971.382 L 47.6811,-971.466 L 47.4673,-971.56 L 47.2584,-971.666 L 47.0549,-971.781 L 46.8573,-971.906
 L 46.6661,-972.041 L 46.4817,-972.185 L 46.3046,-972.337 L 46.1352,-972.499 L 45.974,-972.668 L 45.8212,-972.845
 L 45.6773,-973.029 L 45.5426,-973.221 L 45.4175,-973.418 L 45.3022,-973.622 L 45.1971,-973.831 L 45.1023,-974.044
 L 45.0181,-974.263 L 44.9448,-974.485 L 44.8824,-974.71 L 44.8312,-974.938 L 44.7912,-975.169 L 44.7625,-975.401
 L 44.7453,-975.634 L 44.7396,-975.868 L 44.7453,-976.102 L 44.7625,-976.335 L 44.7912,-976.567 L 44.8312,-976.798
 L 44.8824,-977.026 L 44.9448,-977.251 L 45.0181,-977.473 L 45.1023,-977.691 L 45.1971,-977.905 L 45.3022,-978.114
 L 45.4175,-978.318 L 45.5426,-978.515 L 45.6773,-978.706 L 45.8212,-978.891 L 45.974,-979.068 L 46.1352,-979.237
 L 46.3046,-979.399 L 46.4817,-979.551 L 46.6661,-979.695 L 46.8573,-979.83 L 47.0549,-979.955 L 47.2584,-980.07
 L 47.4673,-980.176 L 47.6811,-980.27 L 47.8993,-980.354 L 48.1214,-980.428 L 48.3468,-980.49 L 48.575,-980.541
 L 48.8054,-980.581 L 49.0375,-980.61 L 49.2708,-980.627 L 49.5046,-980.633 L 49.7384,-980.627 L 49.9716,-980.61
 L 50.2038,-980.581 L 50.4342,-980.541 L 50.6624,-980.49 L 50.8878,-980.428 L 51.1099,-980.354 L 51.3281,-980.27
 L 51.5419,-980.176 L 51.7508,-980.07 L 51.9543,-979.955 L 52.1519,-979.83 L 52.3431,-979.695 L 52.5275,-979.551
 L 52.7046,-979.399 L 52.874,-979.237 L 53.0352,-979.068 L 53.188,-978.891 L 53.3319,-978.706 L 53.4666,-978.515
 L 53.5917,-978.318 L 53.707,-978.114 L 53.8121,-977.905 L 53.9069,-977.691 L 53.9911,-977.473 L 54.0644,-977.251
 L 54.1268,-977.026 L 54.178,-976.798 L 54.218,-976.567 L 54.2467,-976.335 L 54.2639,-976.102 L 54.2696,-975.868
 L 54.2639,-975.634 L 54.2467,-975.401 L 54.218,-975.169 L 54.178,-974.938 L 54.1268,-974.71 L 54.0644,-974.485
 L 53.9911,-974.263 L 53.9069,-974.044 L 53.8121,-973.831 L 53.707,-973.622 L 53.5917,-973.418 L 53.4666,-973.221
 L 53.3319,-973.029 L 53.188,-972.845 L 53.0352,-972.668 L 52.874,-972.499 L 52.7046,-972.337 L 52.5275,-972.185
 L 52.3431,-972.041 L 52.1519,-971.906 L 51.9543,-971.781 L 51.7508,-971.666 L 51.5419,-971.56 L 51.3281,-971.466
 L 51.1099,-971.382 L 50.8878,-971.308 L 50.6624,-971.246 L 50.4342,-971.195 L 50.2038,-971.155 L 49.9716,-971.126
 L 49.7384,-971.109 L 49.5046,-971.103 z
M 229.662,-971.109 L 229.428,-971.126 L 229.196,-971.155 L 228.966,-971.195 L 228.738,-971.246 L 228.512,-971.308
 L 228.29,-971.382 L 228.072,-971.466 L 227.858,-971.56 L 227.649,-971.666 L 227.446,-971.781 L 227.248,-971.906
 L 227.057,-972.041 L 226.873,-972.185 L 226.695,-972.337 L 226.526,-972.499 L 226.365,-972.668 L 226.212,-972.845
 L 226.068,-973.029 L 225.933,-973.221 L 225.808,-973.418 L 225.693,-973.622 L 225.588,-973.831 L 225.493,-974.044
 L 225.409,-974.263 L 225.336,-974.485 L 225.273,-974.71 L 225.222,-974.938 L 225.182,-975.169 L 225.153,-975.401
 L 225.136,-975.634 L 225.13,-975.868 L 225.136,-976.102 L 225.153,-976.335 L 225.182,-976.567 L 225.222,-976.798
 L 225.273,-977.026 L 225.336,-977.251 L 225.409,-977.473 L 225.493,-977.691 L 225.588,-977.905 L 225.693,-978.114
 L 225.808,-978.318 L 225.933,-978.515 L 226.068,-978.706 L 226.212,-978.891 L 226.365,-979.068 L 226.526,-979.237
 L 226.695,-979.399 L 226.873,-979.551 L 227.057,-979.695 L 227.248,-979.83 L 227.446,-979.955 L 227.649,-980.07
 L 227.858,-980.176 L 228.072,-980.27 L 228.29,-980.354 L 228.512,-980.428 L 228.738,-980.49 L 228.966,-980.541
 L 229.196,-980.581 L 229.428,-980.61 L 229.662,-980.627 L 229.895,-980.633 L 230.129,-980.627 L 230.362,-980.61
 L 230.595,-980.581 L 230.825,-980.541 L 231.053,-980.49 L 231.279,-980.428 L 231.501,-980.354 L 231.719,-980.27
 L 231.933,-980.176 L 232.142,-980.07 L 232.345,-979.955 L 232.543,-979.83 L 232.734,-979.695 L 232.918,-979.551
 L 233.095,-979.399 L 233.265,-979.237 L 233.426,-979.068 L 233.579,-978.891 L 233.723,-978.706 L 233.857,-978.515
 L 233.982,-978.318 L 234.098,-978.114 L 234.203,-977.905 L 234.298,-977.691 L 234.382,-977.473 L 234.455,-977.251
 L 234.518,-977.026 L 234.569,-976.798 L 234.609,-976.567 L 234.637,-976.335 L 234.655,-976.102 L 234.66,-975.868
 L 234.655,-975.634 L 234.637,-975.401 L 234.609,-975.169 L 234.569,-974.938 L 234.518,-974.71 L 234.455,-974.485
 L 234.382,-974.263 L 234.298,-974.044 L 234.203,-973.831 L 234.098,-973.622 L 233.982,-973.418 L 233.857,-973.221
 L 233.723,-973.029 L 233.579,-972.845 L 233.426,-972.668 L 233.265,-972.499 L 233.095,-972.337 L 232.918,-972.185
 L 232.734,-972.041 L 232.543,-971.906 L 232.345,-971.781 L 232.142,-971.666 L 231.933,-971.56 L 231.719,-971.466
 L 231.501,-971.382 L 231.279,-971.308 L 231.053,-971.246 L 230.825,-971.195 L 230.595,-971.155 L 230.362,-971.126
 L 230.129,-971.109 L 229.895,-971.103 z
M 49.2708,-829.25 L 49.0375,-829.267 L 48.8054,-829.296 L 48.575,-829.336 L 48.3468,-829.387 L 48.1214,-829.449
 L 47.8993,-829.523 L 47.6811,-829.607 L 47.4673,-829.701 L 47.2584,-829.807 L 47.0549,-829.922 L 46.8573,-830.047
 L 46.6661,-830.182 L 46.4817,-830.326 L 46.3046,-830.478 L 46.1352,-830.64 L 45.974,-830.809 L 45.8212,-830.986
 L 45.6773,-831.17 L 45.5426,-831.362 L 45.4175,-831.559 L 45.3022,-831.763 L 45.1971,-831.972 L 45.1023,-832.185
 L 45.0181,-832.404 L 44.9448,-832.626 L 44.8824,-832.851 L 44.8312,-833.079 L 44.7912,-833.31 L 44.7625,-833.542
 L 44.7453,-833.775 L 44.7396,-834.009 L 44.7453,-834.243 L 44.7625,-834.476 L 44.7912,-834.708 L 44.8312,-834.939
 L 44.8824,-835.167 L 44.9448,-835.392 L 45.0181,-835.614 L 45.1023,-835.832 L 45.1971,-836.046 L 45.3022,-836.255
 L 45.4175,-836.459 L 45.5426,-836.656 L 45.6773,-836.848 L 45.8212,-837.032 L 45.974,-837.209 L 46.1352,-837.378
 L 46.3046,-837.54 L 46.4817,-837.692 L 46.6661,-837.836 L 46.8573,-837.971 L 47.0549,-838.096 L 47.2584,-838.211
 L 47.4673,-838.317 L 47.6811,-838.411 L 47.8993,-838.495 L 48.1214,-838.569 L 48.3468,-838.631 L 48.575,-838.682
 L 48.8054,-838.722 L 49.0375,-838.751 L 49.2708,-838.768 L 49.5046,-838.774 L 49.7384,-838.768 L 49.9716,-838.751
 L 50.2038,-838.722 L 50.4342,-838.682 L 50.6624,-838.631 L 50.8878,-838.569 L 51.1099,-838.495 L 51.3281,-838.411
 L 51.5419,-838.317 L 51.7508,-838.211 L 51.9543,-838.096 L 52.1519,-837.971 L 52.3431,-837.836 L 52.5275,-837.692
 L 52.7046,-837.54 L 52.874,-837.378 L 53.0352,-837.209 L 53.188,-837.032 L 53.3319,-836.848 L 53.4666,-836.656
 L 53.5917,-836.459 L 53.707,-836.255 L 53.8121,-836.046 L 53.9069,-835.832 L 53.9911,-835.614 L 54.0644,-835.392
 L 54.1268,-835.167 L 54.178,-834.939 L 54.218,-834.708 L 54.2467,-834.476 L 54.2639,-834.243 L 54.2696,-834.009
 L 54.2639,-833.775 L 54.2467,-833.542 L 54.218,-833.31 L 54.178,-833.079 L 54.1268,-832.851 L 54.0644,-832.626
 L 53.9911,-832.404 L 53.9069,-832.185 L 53.8121,-831.972 L 53.707,-831.763 L 53.5917,-831.559 L 53.4666,-831.362
 L 53.3319,-831.17 L 53.188,-830.986 L 53.0352,-830.809 L 52.874,-830.64 L 52.7046,-830.478 L 52.5275,-830.326
 L 52.3431,-830.182 L 52.1519,-830.047 L 51.9543,-829.922 L 51.7508,-829.807 L 51.5419,-829.701 L 51.3281,-829.607
 L 51.1099,-829.523 L 50.8878,-829.449 L 50.6624,-829.387 L 50.4342,-829.336 L 50.2038,-829.296 L 49.9716,-829.267
 L 49.7384,-829.25 L 49.5046,-829.244 z
M 229.662,-829.25 L 229.428,-829.267 L 229.196,-829.296 L 228.966,-829.336 L 228.738,-829.387 L 228.512,-829.449
 L 228.29,-829.523 L 228.072,-829.607 L 227.858,-829.701 L 227.649,-829.807 L 227.446,-829.922 L 227.248,-830.047
 L 227.057,-830.182 L 226.873,-830.326 L 226.695,-830.478 L 226.526,-830.64 L 226.365,-830.809 L 226.212,-830.986
 L 226.068,-831.17 L 225.933,-831.362 L 225.808,-831.559 L 225.693,-831.763 L 225.588,-831.972 L 225.493,-832.185
 L 225.409,-832.404 L 225.336,-832.626 L 225.273,-832.851 L 225.222,-833.079 L 225.182,-833.31 L 225.153,-833.542
 L 225.136,-833.775 L 225.13,-834.009 L 225.136,-834.243 L 225.153,-834.476 L 225.182,-834.708 L 225.222,-834.939
 L 225.273,-835.167 L 225.336,-835.392 L 225.409,-835.614 L 225.493,-835.832 L 225.588,-836.046 L 225.693,-836.255
 L 225.808,-836.459 L 225.933,-836.656 L 226.068,-836.848 L 226.212,-837.032 L 226.365,-837.209 L 226.526,-837.378
 L 226.695,-837.54 L 226.873,-837.692 L 227.057,-837.836 L 227.248,-837.971 L 227.446,-838.096 L 227.649,-838.211
 L 227.858,-838.317 L 228.072,-838.411 L 228.29,-838.495 L 228.512,-838.569 L 228.738,-838.631 L 228.966,-838.682
 L 229.196,-838.722 L 229.428,-838.751 L 229.662,-838.768 L 229.895,-838.774 L 230.129,-838.768 L 230.362,-838.751
 L 230.595,-838.722 L 230.825,-838.682 L 231.053,-838.631 L 231.279,-838.569 L 231.501,-838.495 L 231.719,-838.411
 L 231.933,-838.317 L 232.142,-838.211 L 232.345,-838.096 L 232.543,-837.971 L 232.734,-837.836 L 232.918,-837.692
 L 233.095,-837.54 L 233.265,-837.378 L 233.426,-837.209 L 233.579,-837.032 L 233.723,-836.848 L 233.857,-836.656
 L 233.982,-836.459 L 234.098,-836.255 L 234.203,-836.046 L 234.298,-835.832 L 234.382,-835.614 L 234.455,-835.392
 L 234.518,-835.167 L 234.569,-834.939 L 234.609,-834.708 L 234.637,-834.476 L 234.655,-834.243 L 234.66,-834.009
 L 234.655,-833.775 L 234.637,-833.542 L 234.609,-833.31 L 234.569,-833.079 L 234.518,-832.851 L 234.455,-832.626
 L 234.382,-832.404 L 234.298,-832.185 L 234.203,-831.972 L 234.098,-831.763 L 233.982,-831.559 L 233.857,-831.362
 L 233.723,-831.17 L 233.579,-830.986 L 233.426,-830.809 L 233.265,-830.64 L 233.095,-830.478 L 232.918,-830.326
 L 232.734,-830.182 L 232.543,-830.047 L 232.345,-829.922 L 232.142,-829.807 L 231.933,-829.701 L 231.719,-829.607
 L 231.501,-829.523 L 231.279,-829.449 L 231.053,-829.387 L 230.825,-829.336 L 230.595,-829.296 L 230.362,-829.267
 L 230.129,-829.25 L 229.895,-829.244 z
M 49.2708,-632.4 L 49.0375,-632.417 L 48.8054,-632.446 L 48.575,-632.486 L 48.3468,-632.537 L 48.1214,-632.599
 L 47.8993,-632.673 L 47.6811,-632.757 L 47.4673,-632.852 L 47.2584,-632.957 L 47.0549,-633.072 L 46.8573,-633.197
 L 46.6661,-633.332 L 46.4817,-633.476 L 46.3046,-633.628 L 46.1352,-633.79 L 45.974,-633.959 L 45.8212,-634.136
 L 45.6773,-634.32 L 45.5426,-634.512 L 45.4175,-634.709 L 45.3022,-634.913 L 45.1971,-635.122 L 45.1023,-635.336
 L 45.0181,-635.554 L 44.9448,-635.776 L 44.8824,-636.001 L 44.8312,-636.229 L 44.7912,-636.46 L 44.7625,-636.692
 L 44.7453,-636.925 L 44.7396,-637.159 L 44.7453,-637.393 L 44.7625,-637.626 L 44.7912,-637.858 L 44.8312,-638.089
 L 44.8824,-638.317 L 44.9448,-638.542 L 45.0181,-638.764 L 45.1023,-638.982 L 45.1971,-639.196 L 45.3022,-639.405
 L 45.4175,-639.609 L 45.5426,-639.806 L 45.6773,-639.997 L 45.8212,-640.182 L 45.974,-640.359 L 46.1352,-640.528
 L 46.3046,-640.69 L 46.4817,-640.842 L 46.6661,-640.986 L 46.8573,-641.121 L 47.0549,-641.246 L 47.2584,-641.361
 L 47.4673,-641.466 L 47.6811,-641.561 L 47.8993,-641.645 L 48.1214,-641.719 L 48.3468,-641.781 L 48.575,-641.832
 L 48.8054,-641.872 L 49.0375,-641.901 L 49.2708,-641.918 L 49.5046,-641.924 L 49.7384,-641.918 L 49.9716,-641.901
 L 50.2038,-641.872 L 50.4342,-641.832 L 50.6624,-641.781 L 50.8878,-641.719 L 51.1099,-641.645 L 51.3281,-641.561
 L 51.5419,-641.466 L 51.7508,-641.361 L 51.9543,-641.246 L 52.1519,-641.121 L 52.3431,-640.986 L 52.5275,-640.842
 L 52.7046,-640.69 L 52.874,-640.528 L 53.0352,-640.359 L 53.188,-640.182 L 53.3319,-639.997 L 53.4666,-639.806
 L 53.5917,-639.609 L 53.707,-639.405 L 53.8121,-639.196 L 53.9069,-638.982 L 53.9911,-638.764 L 54.0644,-638.542
 L 54.1268,-638.317 L 54.178,-638.089 L 54.218,-637.858 L 54.2467,-637.626 L 54.2639,-637.393 L 54.2696,-637.159
 L 54.2639,-636.925 L 54.2467,-636.692 L 54.218,-636.46 L 54.178,-636.229 L 54.1268,-636.001 L 54.0644,-635.776
 L 53.9911,-635.554 L 53.9069,-635.336 L 53.8121,-635.122 L 53.707,-634.913 L 53.5917,-634.709 L 53.4666,-634.512
 L 53.3319,-634.32 L 53.188,-634.136 L 53.0352,-633.959 L 52.874,-633.79 L 52.7046,-633.628 L 52.5275,-633.476
 L 52.3431,-633.332 L 52.1519,-633.197 L 51.9543,-633.072 L 51.7508,-632.957 L 51.5419,-632.852 L 51.3281,-632.757
 L 51.1099,-632.673 L 50.8878,-632.599 L 50.6624,-632.537 L 50.4342,-632.486 L 50.2038,-632.446 L 49.9716,-632.417
 L 49.7384,-632.4 L 49.5046,-632.394 z
M 229.662,-632.4 L 229.428,-632.417 L 229.196,-632.446 L 228.966,-632.486 L 228.738,-632.537 L 228.512,-632.599
 L 228.29,-632.673 L 228.072,-632.757 L 227.858,-632.852 L 227.649,-632.957 L 227.446,-633.072 L 227.248,-633.197
 L 227.057,-633.332 L 226.873,-633.476 L 226.695,-633.628 L 226.526,-633.79 L 226.365,-633.959 L 226.212,-634.136
 L 226.068,-634.32 L 225.933,-634.512 L 225.808,-634.709 L 225.693,-634.913 L 225.588,-635.122 L 225.493,-635.336
 L 225.409,-635.554 L 225.336,-635.776 L 225.273,-636.001 L 225.222,-636.229 L 225.182,-636.46 L 225.153,-636.692
 L 225.136,-636.925 L 225.13,-637.159 L 225.136,-637.393 L 225.153,-637.626 L 225.182,-637.858 L 225.222,-638.089
 L 225.273,-638.317 L 225.336,-638.542 L 225.409,-638.764 L 225.493,-638.982 L 225.588,-639.196 L 225.693,-639.405
 L 225.808,-639.609 L 225.933,-639.806 L 226.068,-639.997 L 226.212,-640.182 L 226.365,-640.359 L 226.526,-640.528
 L 226.695,-640.69 L 226.873,-640.842 L 227.057,-640.986 L 227.248,-641.121 L 227.446,-641.246 L 227.649,-641.361
 L 227.858,-641.466 L 228.072,-641.561 L 228.29,-641.645 L 228.512,-641.719 L 228.738,-641.781 L 228.966,-641.832
 L 229.196,-641.872 L 229.428,-641.901 L 229.662,-641.918 L 229.895,-641.924 L 230.129,-641.918 L 230.362,-641.901
 L 230.595,-641.872 L 230.825,-641.832 L 231.053,-641.781 L 231.279,-641.719 L 231.501,-641.645 L 231.719,-641.561
 L 231.933,-641.466 L 232.142,-641.361 L 232.345,-641.246 L 232.543,-641.121 L 232.734,-640.986 L 232.918,-640.842
 L 233.095,-640.69 L 233.265,-640.528 L 233.426,-640.359 L 233.579,-640.182 L 233.723,-639.997 L 233.857,-639.806
 L 233.982,-639.609 L 234.098,-639.405 L 234.203,-639.196 L 234.298,-638.982 L 234.382,-638.764 L 234.455,-638.542
 L 234.518,-638.317 L 234.569,-638.089 L 234.609,-637.858 L 234.637,-637.626 L 234.655,-637.393 L 234.66,-637.159
 L 234.655,-636.925 L 234.637,-636.692 L 234.609,-636.46 L 234.569,-636.229 L 234.518,-636.001 L 234.455,-635.776
 L 234.382,-635.554 L 234.298,-635.336 L 234.203,-635.122 L 234.098,-634.913 L 233.982,-634.709 L 233.857,-634.512
 L 233.723,-634.32 L 233.579,-634.136 L 233.426,-633.959 L 233.265,-633.79 L 233.095,-633.628 L 232.918,-633.476
 L 232.734,-633.332 L 232.543,-633.197 L 232.345,-633.072 L 232.142,-632.957 L 231.933,-632.852 L 231.719,-632.757
 L 231.501,-632.673 L 231.279,-632.599 L 231.053,-632.537 L 230.825,-632.486 L 230.595,-632.446 L 230.362,-632.417
 L 230.129,-632.4 L 229.895,-632.394 z
M 49.2708,-490.541 L 49.0375,-490.558 L 48.8054,-490.587 L 48.575,-490.627 L 48.3468,-490.678 L 48.1214,-490.74
 L 47.8993,-490.814 L 47.6811,-490.898 L 47.4673,-490.992 L 47.2584,-491.098 L 47.0549,-491.213 L 46.8573,-491.338
 L 46.6661,-491.473 L 46.4817,-491.617 L 46.3046,-491.769 L 46.1352,-491.931 L 45.974,-492.1 L 45.8212,-492.277
 L 45.6773,-492.461 L 45.5426,-492.653 L 45.4175,-492.85 L 45.3022,-493.054 L 45.1971,-493.263 L 45.1023,-493.477
 L 45.0181,-493.695 L 44.9448,-493.917 L 44.8824,-494.142 L 44.8312,-494.37 L 44.7912,-494.601 L 44.7625,-494.833
 L 44.7453,-495.066 L 44.7396,-495.3 L 44.7453,-495.534 L 44.7625,-495.767 L 44.7912,-495.999 L 44.8312,-496.23
 L 44.8824,-496.458 L 44.9448,-496.683 L 45.0181,-496.905 L 45.1023,-497.123 L 45.1971,-497.337 L 45.3022,-497.546
 L 45.4175,-497.75 L 45.5426,-497.947 L 45.6773,-498.139 L 45.8212,-498.323 L 45.974,-498.5 L 46.1352,-498.669
 L 46.3046,-498.831 L 46.4817,-498.983 L 46.6661,-499.127 L 46.8573,-499.262 L 47.0549,-499.387 L 47.2584,-499.502
 L 47.4673,-499.608 L 47.6811,-499.702 L 47.8993,-499.786 L 48.1214,-499.86 L 48.3468,-499.922 L 48.575,-499.973
 L 48.8054,-500.013 L 49.0375,-500.042 L 49.2708,-500.059 L 49.5046,-500.065 L 49.7384,-500.059 L 49.9716,-500.042
 L 50.2038,-500.013 L 50.4342,-499.973 L 50.6624,-499.922 L 50.8878,-499.86 L 51.1099,-499.786 L 51.3281,-499.702
 L 51.5419,-499.608 L 51.7508,-499.502 L 51.9543,-499.387 L 52.1519,-499.262 L 52.3431,-499.127 L 52.5275,-498.983
 L 52.7046,-498.831 L 52.874,-498.669 L 53.0352,-498.5 L 53.188,-498.323 L 53.3319,-498.139 L 53.4666,-497.947
 L 53.5917,-497.75 L 53.707,-497.546 L 53.8121,-497.337 L 53.9069,-497.123 L 53.9911,-496.905 L 54.0644,-496.683
 L 54.1268,-496.458 L 54.178,-496.23 L 54.218,-495.999 L 54.2467,-495.767 L 54.2639,-495.534 L 54.2696,-495.3
 L 54.2639,-495.066 L 54.2467,-494.833 L 54.218,-494.601 L 54.178,-494.37 L 54.1268,-494.142 L 54.0644,-493.917
 L 53.9911,-493.695 L 53.9069,-493.477 L 53.8121,-493.263 L 53.707,-493.054 L 53.5917,-492.85 L 53.4666,-492.653
 L 53.3319,-492.461 L 53.188,-492.277 L 53.0352,-492.1 L 52.874,-491.931 L 52.7046,-491.769 L 52.5275,-491.617
 L 52.3431,-491.473 L 52.1519,-491.338 L 51.9543,-491.213 L 51.7508,-491.098 L 51.5419,-490.992 L 51.3281,-490.898
 L 51.1099,-490.814 L 50.8878,-490.74 L 50.6624,-490.678 L 50.4342,-490.627 L 50.2038,-490.587 L 49.9716,-490.558
 L 49.7384,-490.541 L 49.5046,-490.535 z
M 229.662,-490.541 L 229.428,-490.558 L 229.196,-490.587 L 228.966,-490.627 L 228.738,-490.678 L 228.512,-490.74
 L 228.29,-490.814 L 228.072,-490.898 L 227.858,-490.992 L 227.649,-491.098 L 227.446,-491.213 L 227.248,-491.338
 L 227.057,-491.473 L 226.873,-491.617 L 226.695,-491.769 L 226.526,-491.931 L 226.365,-492.1 L 226.212,-492.277
 L 226.068,-492.461 L 225.933,-492.653 L 225.808,-492.85 L 225.693,-493.054 L 225.588,-493.263 L 225.493,-493.477
 L 225.409,-493.695 L 225.336,-493.917 L 225.273,-494.142 L 225.222,-494.37 L 225.182,-494.601 L 225.153,-494.833
 L 225.136,-495.066 L 225.13,-495.3 L 225.136,-495.534 L 225.153,-495.767 L 225.182,-495.999 L 225.222,-496.23
 L 225.273,-496.458 L 225.336,-496.683 L 225.409,-496.905 L 225.493,-497.123 L 225.588,-497.337 L 225.693,-497.546
 L 225.808,-497.75 L 225.933,-497.947 L 226.068,-498.139 L 226.212,-498.323 L 226.365,-498.5 L 226.526,-498.669
 L 226.695,-498.831 L 226.873,-498.983 L 227.057,-499.127 L 227.248,-499.262 L 227.446,-499.387 L 227.649,-499.502
 L 227.858,-499.608 L 228.072,-499.702 L 228.29,-499.786 L 228.512,-499.86 L 228.738,-499.922 L 228.966,-499.973
 L 229.196,-500.013 L 229.428,-500.042 L 229.662,-500.059 L 229.895,-500.065 L 230.129,-500.059 L 230.362,-500.042
 L 230.595,-500.013 L 230.825,-499.973 L 231.053,-499.922 L 231.279,-499.86 L 231.501,-499.786 L 231.719,-499.702
 L 231.933,-499.608 L 232.142,-499.502 L 232.345,-499.387 L 232.543,-499.262 L 232.734,-499.127 L 232.918,-498.983
 L 233.095,-498.831 L 233.265,-498.669 L 233.426,-498.5 L 233.579,-498.323 L 233.723,-498.139 L 233.857,-497.947
 L 233.982,-497.75 L 234.098,-497.546 L 234.203,-497.337 L 234.298,-497.123 L 234.382,-496.905 L 234.455,-496.683
 L 234.518,-496.458 L 234.569,-496.23 L 234.609,-495.999 L 234.637,-495.767 L 234.655,-495.534 L 234.66,-495.3
 L 234.655,-495.066 L 234.637,-494.833 L 234.609,-494.601 L 234.569,-494.37 L 234.518,-494.142 L 234.455,-493.917
 L 234.382,-493.695 L 234.298,-493.477 L 234.203,-493.263 L 234.098,-493.054 L 233.982,-492.85 L 233.857,-492.653
 L 233.723,-492.461 L 233.579,-492.277 L 233.426,-492.1 L 233.265,-491.931 L 233.095,-491.769 L 232.918,-491.617
 L 232.734,-491.473 L 232.543,-491.338 L 232.345,-491.213 L 232.142,-491.098 L 231.933,-490.992 L 231.719,-490.898
 L 231.501,-490.814 L 231.279,-490.74 L 231.053,-490.678 L 230.825,-490.627 L 230.595,-490.587 L 230.362,-490.558
 L 230.129,-490.541 L 229.895,-490.535 z
M 49.2708,-293.691 L 49.0375,-293.708 L 48.8054,-293.737 L 48.575,-293.777 L 48.3468,-293.828 L 48.1214,-293.89
 L 47.8993,-293.964 L 47.6811,-294.048 L 47.4673,-294.142 L 47.2584,-294.248 L 47.0549,-294.363 L 46.8573,-294.488
 L 46.6661,-294.623 L 46.4817,-294.767 L 46.3046,-294.919 L 46.1352,-295.081 L 45.974,-295.25 L 45.8212,-295.427
 L 45.6773,-295.611 L 45.5426,-295.803 L 45.4175,-296 L 45.3022,-296.204 L 45.1971,-296.413 L 45.1023,-296.627
 L 45.0181,-296.845 L 44.9448,-297.067 L 44.8824,-297.292 L 44.8312,-297.52 L 44.7912,-297.751 L 44.7625,-297.983
 L 44.7453,-298.216 L 44.7396,-298.45 L 44.7453,-298.684 L 44.7625,-298.917 L 44.7912,-299.149 L 44.8312,-299.38
 L 44.8824,-299.608 L 44.9448,-299.833 L 45.0181,-300.055 L 45.1023,-300.273 L 45.1971,-300.487 L 45.3022,-300.696
 L 45.4175,-300.9 L 45.5426,-301.097 L 45.6773,-301.289 L 45.8212,-301.473 L 45.974,-301.65 L 46.1352,-301.819
 L 46.3046,-301.981 L 46.4817,-302.133 L 46.6661,-302.277 L 46.8573,-302.412 L 47.0549,-302.537 L 47.2584,-302.652
 L 47.4673,-302.758 L 47.6811,-302.852 L 47.8993,-302.936 L 48.1214,-303.01 L 48.3468,-303.072 L 48.575,-303.123
 L 48.8054,-303.163 L 49.0375,-303.192 L 49.2708,-303.209 L 49.5046,-303.215 L 49.7384,-303.209 L 49.9716,-303.192
 L 50.2038,-303.163 L 50.4342,-303.123 L 50.6624,-303.072 L 50.8878,-303.01 L 51.1099,-302.936 L 51.3281,-302.852
 L 51.5419,-302.758 L 51.7508,-302.652 L 51.9543,-302.537 L 52.1519,-302.412 L 52.3431,-302.277 L 52.5275,-302.133
 L 52.7046,-301.981 L 52.874,-301.819 L 53.0352,-301.65 L 53.188,-301.473 L 53.3319,-301.289 L 53.4666,-301.097
 L 53.5917,-300.9 L 53.707,-300.696 L 53.8121,-300.487 L 53.9069,-300.273 L 53.9911,-300.055 L 54.0644,-299.833
 L 54.1268,-299.608 L 54.178,-299.38 L 54.218,-299.149 L 54.2467,-298.917 L 54.2639,-298.684 L 54.2696,-298.45
 L 54.2639,-298.216 L 54.2467,-297.983 L 54.218,-297.751 L 54.178,-297.52 L 54.1268,-297.292 L 54.0644,-297.067
 L 53.9911,-296.845 L 53.9069,-296.627 L 53.8121,-296.413 L 53.707,-296.204 L 53.5917,-296 L 53.4666,-295.803
 L 53.3319,-295.611 L 53.188,-295.427 L 53.0352,-295.25 L 52.874,-295.081 L 52.7046,-294.919 L 52.5275,-294.767
 L 52.3431,-294.623 L 52.1519,-294.488 L 51.9543,-294.363 L 51.7508,-294.248 L 51.5419,-294.142 L 51.3281,-294.048
 L 51.1099,-293.964 L 50.8878,-293.89 L 50.6624,-293.828 L 50.4342,-293.777 L 50.2038,-293.737 L 49.9716,-293.708
 L 49.7384,-293.691 L 49.5046,-293.685 z
M 229.662,-293.691 L 229.428,-293.708 L 229.196,-293.737 L 228.966,-293.777 L 228.738,-293.828 L 228.512,-293.89
 L 228.29,-293.964 L 228.072,-294.048 L 227.858,-294.142 L 227.649,-294.248 L 227.446,-294.363 L 227.248,-294.488
 L 227.057,-294.623 L 226.873,-294.767 L 226.695,-294.919 L 226.526,-295.081 L 226.365,-295.25 L 226.212,-295.427
 L 226.068,-295.611 L 225.933,-295.803 L 225.808,-296 L 225.693,-296.204 L 225.588,-296.413 L 225.493,-296.627
 L 225.409,-296.845 L 225.336,-297.067 L 225.273,-297.292 L 225.222,-297.52 L 225.182,-297.751 L 225.153,-297.983
 L 225.136,-298.216 L 225.13,-298.45 L 225.136,-298.684 L 225.153,-298.917 L 225.182,-299.149 L 225.222,-299.38
 L 225.273,-299.608 L 225.336,-299.833 L 225.409,-300.055 L 225.493,-300.273 L 225.588,-300.487 L 225.693,-300.696
 L 225.808,-300.9 L 225.933,-301.097 L 226.068,-301.289 L 226.212,-301.473 L 226.365,-301.65 L 226.526,-301.819
 L 226.695,-301.981 L 226.873,-302.133 L 227.057,-302.277 L 227.248,-302.412 L 227.446,-302.537 L 227.649,-302.652
 L 227.858,-302.758 L 228.072,-302.852 L 228.29,-302.936 L 228.512,-303.01 L 228.738,-303.072 L 228.966,-303.123
 L 229.196,-303.163 L 229.428,-303.192 L 229.662,-303.209 L 229.895,-303.215 L 230.129,-303.209 L 230.362,-303.192
 L 230.595,-303.163 L 230.825,-303.123 L 231.053,-303.072 L 231.279,-303.01 L 231.501,-302.936 L 231.719,-302.852
 L 231.933,-302.758 L 232.142,-302.652 L 232.345,-302.537 L 232.543,-302.412 L 232.734,-302.277 L 232.918,-302.133
 L 233.095,-301.981 L 233.265,-301.819 L 233.426,-301.65 L 233.579,-301.473 L 233.723,-301.289 L 233.857,-301.097
 L 233.982,-300.9 L 234.098,-300.696 L 234.203,-300.487 L 234.298,-300.273 L 234.382,-300.055 L 234.455,-299.833
 L 234.518,-299.608 L 234.569,-299.38 L 234.609,-299.149 L 234.637,-298.917 L 234.655,-298.684 L 234.66,-298.45
 L 234.655,-298.216 L 234.637,-297.983 L 234.609,-297.751 L 234.569,-297.52 L 234.518,-297.292 L 234.455,-297.067
 L 234.382,-296.845 L 234.298,-296.627 L 234.203,-296.413 L 234.098,-296.204 L 233.982,-296 L 233.857,-295.803
 L 233.723,-295.611 L 233.579,-295.427 L 233.426,-295.25 L 233.265,-295.081 L 233.095,-294.919 L 232.918,-294.767
 L 232.734,-294.623 L 232.543,-294.488 L 232.345,-294.363 L 232.142,-294.248 L 231.933,-294.142 L 231.719,-294.048
 L 231.501,-293.964 L 231.279,-293.89 L 231.053,-293.828 L 230.825,-293.777 L 230.595,-293.737 L 230.362,-293.708
 L 230.129,-293.691 L 229.895,-293.685 z
M 49.2708,-96.8407 L 49.0375,-96.8579 L 48.8054,-96.8866 L 48.575,-96.9266 L 48.3468,-96.9778 L 48.1214,-97.0402
 L 47.8993,-97.1135 L 47.6811,-97.1977 L 47.4673,-97.2925 L 47.2584,-97.3976 L 47.0549,-97.5129 L 46.8573,-97.638
 L 46.6661,-97.7727 L 46.4817,-97.9166 L 46.3046,-98.0694 L 46.1352,-98.2306 L 45.974,-98.4 L 45.8212,-98.5771
 L 45.6773,-98.7615 L 45.5426,-98.9527 L 45.4175,-99.1503 L 45.3022,-99.3538 L 45.1971,-99.5627 L 45.1023,-99.7765
 L 45.0181,-99.9947 L 44.9448,-100.217 L 44.8824,-100.442 L 44.8312,-100.67 L 44.7912,-100.901 L 44.7625,-101.133
 L 44.7453,-101.366 L 44.7396,-101.6 L 44.7453,-101.834 L 44.7625,-102.067 L 44.7912,-102.299 L 44.8312,-102.53
 L 44.8824,-102.758 L 44.9448,-102.983 L 45.0181,-103.205 L 45.1023,-103.423 L 45.1971,-103.637 L 45.3022,-103.846
 L 45.4175,-104.05 L 45.5426,-104.247 L 45.6773,-104.439 L 45.8212,-104.623 L 45.974,-104.8 L 46.1352,-104.969
 L 46.3046,-105.131 L 46.4817,-105.283 L 46.6661,-105.427 L 46.8573,-105.562 L 47.0549,-105.687 L 47.2584,-105.802
 L 47.4673,-105.908 L 47.6811,-106.002 L 47.8993,-106.086 L 48.1214,-106.16 L 48.3468,-106.222 L 48.575,-106.273
 L 48.8054,-106.313 L 49.0375,-106.342 L 49.2708,-106.359 L 49.5046,-106.365 L 49.7384,-106.359 L 49.9716,-106.342
 L 50.2038,-106.313 L 50.4342,-106.273 L 50.6624,-106.222 L 50.8878,-106.16 L 51.1099,-106.086 L 51.3281,-106.002
 L 51.5419,-105.908 L 51.7508,-105.802 L 51.9543,-105.687 L 52.1519,-105.562 L 52.3431,-105.427 L 52.5275,-105.283
 L 52.7046,-105.131 L 52.874,-104.969 L 53.0352,-104.8 L 53.188,-104.623 L 53.3319,-104.439 L 53.4666,-104.247
 L 53.5917,-104.05 L 53.707,-103.846 L 53.8121,-103.637 L 53.9069,-103.423 L 53.9911,-103.205 L 54.0644,-102.983
 L 54.1268,-102.758 L 54.178,-102.53 L 54.218,-102.299 L 54.2467,-102.067 L 54.2639,-101.834 L 54.2696,-101.6
 L 54.2639,-101.366 L 54.2467,-101.133 L 54.218,-100.901 L 54.178,-100.67 L 54.1268,-100.442 L 54.0644,-100.217
 L 53.9911,-99.9947 L 53.9069,-99.7765 L 53.8121,-99.5627 L 53.707,-99.3538 L 53.5917,-99.1503 L 53.4666,-98.9527
 L 53.3319,-98.7615 L 53.188,-98.5771 L 53.0352,-98.4 L 52.874,-98.2306 L 52.7046,-98.0694 L 52.5275,-97.9166
 L 52.3431,-97.7727 L 52.1519,-97.638 L 51.9543,-97.5129 L 51.7508,-97.3976 L 51.5419,-97.2925 L 51.3281,-97.1977
 L 51.1099,-97.1135 L 50.8878,-97.0402 L 50.6624,-96.9778 L 50.4342,-96.9266 L 50.2038,-96.8866 L 49.9716,-96.8579
 L 49.7384,-96.8407 L 49.5046,-96.835 z
M 229.662,-96.8407 L 229.428,-96.8579 L 229.196,-96.8866 L 228.966,-96.9266 L 228.738,-96.9778 L 228.512,-97.0402
 L 228.29,-97.1135 L 228.072,-97.1977 L 227.858,-97.2925 L 227.649,-97.3976 L 227.446,-97.5129 L 227.248,-97.638
 L 227.057,-97.7727 L 226.873,-97.9166 L 226.695,-98.0694 L 226.526,-98.2306 L 226.365,-98.4 L 226.212,-98.5771
 L 226.068,-98.7615 L 225.933,-98.9527 L 225.808,-99.1503 L 225.693,-99.3538 L 225.588,-99.5627 L 225.493,-99.7765
 L 225.409,-99.9947 L 225.336,-100.217 L 225.273,-100.442 L 225.222,-100.67 L 225.182,-100.901 L 225.153,-101.133
 L 225.136,-101.366 L 225.13,-101.6 L 225.136,-101.834 L 225.153,-102.067 L 225.182,-102.299 L 225.222,-102.53
 L 225.273,-102.758 L 225.336,-102.983 L 225.409,-103.205 L 225.493,-103.423 L 225.588,-103.637 L 225.693,-103.846
 L 225.808,-104.05 L 225.933,-104.247 L 226.068,-104.439 L 226.212,-104.623 L 226.365,-104.8 L 226.526,-104.969
 L 226.695,-105.131 L 226.873,-105.283 L 227.057,-105.427 L 227.248,-105.562 L 227.446,-105.687 L 227.649,-105.802
 L 227.858,-105.908 L 228.072,-106.002 L 228.29,-106.086 L 228.512,-106.16 L 228.738,-106.222 L 228.966,-106.273
 L 229.196,-106.313 L 229.428,-106.342 L 229.662,-106.359 L 229.895,-106.365 L 230.129,-106.359 L 230.362,-106.342
 L 230.595,-106.313 L 230.825,-106.273 L 231.053,-106.222 L 231.279,-106.16 L 231.501,-106.086 L 231.719,-106.002
 L 231.933,-105.908 L 232.142,-105.802 L 232.345,-105.687 L 232.543,-105.562 L 232.734,-105.427 L 232.918,-105.283
 L 233.095,-105.131 L 233.265,-104.969 L 233.426,-104.8 L 233.579,-104.623 L 233.723,-104.439 L 233.857,-104.247
 L 233.982,-104.05 L 234.098,-103.846 L 234.203,-103.637 L 234.298,-103.423 L 234.382,-103.205 L 234.455,-102.983
 L 234.518,-102.758 L 234.569,-102.53 L 234.609,-102.299 L 234.637,-102.067 L 234.655,-101.834 L 234.66,-101.6
 L 234.655,-101.366 L 234.637,-101.133 L 234.609,-100.901 L 234.569,-100.67 L 234.518,-100.442 L 234.455,-100.217
 L 234.382,-99.9947 L 234.298,-99.7765 L 234.203,-99.5627 L 234.098,-99.3538 L 233.982,-99.1503 L 233.857,-98.9527
 L 233.723,-98.7615 L 233.579,-98.5771 L 233.426,-98.4 L 233.265,-98.2306 L 233.095,-98.0694 L 232.918,-97.9166
 L 232.734,-97.7727 L 232.543,-97.638 L 232.345,-97.5129 L 232.142,-97.3976 L 231.933,-97.2925 L 231.719,-97.1977
 L 231.501,-97.1135 L 231.279,-97.0402 L 231.053,-96.9778 L 230.825,-96.9266 L 230.595,-96.8866 L 230.362,-96.8579
 L 230.129,-96.8407 L 229.895,-96.835 z
" stroke="black" fill="lightgray" stroke-width="0.5"/>
</svg>
